<svg width="3840" height="3023" viewBox="0 0 3840 3023" fill="none" xmlns="http://www.w3.org/2000/svg">
<rect width="3840" height="3023" fill="#F7F9FA"/>
<circle cx="1093.5" cy="1524.5" r="946.5" fill="#0B1F2F"/>
<circle cx="1385.5" cy="1524.5" r="654.5" fill="#A1ACC4"/>
<circle cx="1652.5" cy="1524.5" r="387.5" fill="#D0D6E1"/>
<circle cx="1869" cy="1378" r="100" fill="#0B1F2F"/>
<circle cx="1869" cy="1646" r="100" fill="#0B1F2F"/>
<path d="M207.24 1507L227.16 1449.8H239.16L259.32 1507H247.24L243.4 1494.84H222.76L219 1507H207.24ZM230.6 1469.48L225.48 1485.96H240.6L235.48 1469.48C234.52 1466.44 233.16 1460.68 233.16 1460.68H233C233 1460.68 231.56 1466.44 230.6 1469.48ZM273.734 1465.96V1472.52H273.974C276.454 1467.88 279.254 1465.48 284.054 1465.48C285.254 1465.48 285.974 1465.56 286.614 1465.8V1475.32H286.374C279.254 1474.6 274.134 1478.36 274.134 1487V1507H263.254V1465.96H273.734ZM289.292 1473.16V1465.96H294.972V1453.16H305.612V1465.96H312.652V1473.16H305.612V1494.92C305.612 1497.96 307.292 1499 309.692 1499C311.052 1499 312.892 1498.92 312.892 1498.92V1506.92C312.892 1506.92 310.412 1507.08 306.092 1507.08C300.812 1507.08 294.972 1505 294.972 1497.24V1473.16H289.292ZM318.254 1507V1465.96H329.134V1507H318.254ZM318.254 1459.56V1449.8H329.134V1459.56H318.254ZM333.505 1473.48V1465.96H339.105V1462.28C339.105 1452.28 346.865 1448.76 357.345 1449.88V1458.28C352.225 1458.04 349.985 1458.68 349.985 1462.92V1465.96H357.345V1473.48H349.985V1507H339.105V1473.48H333.505ZM362.225 1507V1465.96H373.105V1507H362.225ZM362.225 1459.56V1449.8H373.105V1459.56H362.225ZM399.169 1508.2C386.209 1508.2 378.129 1498.76 378.129 1486.52C378.129 1474.28 386.129 1464.84 398.609 1464.84C409.249 1464.84 415.809 1471 417.249 1479.88H406.609C405.889 1476.28 403.089 1473.56 399.089 1473.56C392.529 1473.56 389.169 1478.6 389.169 1486.52C389.169 1494.28 392.289 1499.48 398.929 1499.48C403.329 1499.48 406.449 1497.16 407.169 1492.52H417.649C416.929 1501.24 410.129 1508.2 399.169 1508.2ZM422.395 1507V1465.96H433.275V1507H422.395ZM422.395 1459.56V1449.8H433.275V1459.56H422.395ZM466.126 1507C465.486 1506.2 465.086 1504.28 464.846 1502.44H464.686C462.606 1505.56 459.646 1507.96 452.606 1507.96C444.206 1507.96 438.286 1503.56 438.286 1495.4C438.286 1486.36 445.646 1483.48 454.766 1482.2C461.566 1481.24 464.686 1480.68 464.686 1477.56C464.686 1474.6 462.366 1472.68 457.806 1472.68C452.686 1472.68 450.206 1474.52 449.886 1478.44H440.206C440.526 1471.24 445.886 1464.92 457.886 1464.92C470.206 1464.92 475.166 1470.44 475.166 1480.04V1500.92C475.166 1504.04 475.646 1505.88 476.606 1506.6V1507H466.126ZM455.246 1500.36C461.486 1500.36 464.926 1496.52 464.926 1492.52V1486.36C463.006 1487.48 460.046 1488.12 457.326 1488.76C451.646 1490.04 448.846 1491.32 448.846 1495.16C448.846 1499 451.406 1500.36 455.246 1500.36ZM482.243 1507V1449.8H493.123V1507H482.243ZM211.48 1595V1537.8H223.08V1595H211.48ZM241.707 1553.96V1559.56H241.947C244.747 1555.16 248.507 1552.84 254.107 1552.84C262.587 1552.84 268.267 1559.24 268.267 1568.2V1595H257.387V1569.8C257.387 1565.4 254.827 1562.28 250.267 1562.28C245.467 1562.28 241.947 1566.12 241.947 1571.72V1595H231.067V1553.96H241.707ZM271.792 1561.16V1553.96H277.472V1541.16H288.112V1553.96H295.152V1561.16H288.112V1582.92C288.112 1585.96 289.792 1587 292.192 1587C293.552 1587 295.392 1586.92 295.392 1586.92V1594.92C295.392 1594.92 292.912 1595.08 288.592 1595.08C283.312 1595.08 277.472 1593 277.472 1585.24V1561.16H271.792ZM319.644 1596.2C306.044 1596.2 298.364 1586.68 298.364 1574.44C298.364 1562.28 306.604 1552.84 318.604 1552.84C331.804 1552.84 338.844 1562.92 338.844 1577.56H309.084C309.884 1583.88 313.404 1587.8 319.564 1587.8C323.804 1587.8 326.284 1585.88 327.484 1582.76H338.204C336.684 1590.04 330.204 1596.2 319.644 1596.2ZM318.764 1561.24C313.004 1561.24 310.204 1564.68 309.244 1570.04H327.484C327.164 1564.84 323.724 1561.24 318.764 1561.24ZM344.039 1595V1537.8H354.919V1595H344.039ZM362.243 1595V1537.8H373.123V1595H362.243ZM380.286 1595V1553.96H391.166V1595H380.286ZM380.286 1547.56V1537.8H391.166V1547.56H380.286ZM416.256 1609C405.056 1609 398.176 1604.2 397.056 1596.2H407.856C408.736 1598.76 411.056 1600.76 416.096 1600.76C422.256 1600.76 425.216 1597.8 425.216 1592.2V1587.72H424.976C422.576 1590.44 419.456 1592.52 414.256 1592.52C405.136 1592.52 396.176 1585.32 396.176 1572.92C396.176 1560.68 403.536 1552.84 413.936 1552.84C419.056 1552.84 422.816 1554.84 425.296 1558.28H425.456V1553.96H435.936V1591.88C435.936 1597.64 434.096 1601.56 431.056 1604.36C427.616 1607.56 422.336 1609 416.256 1609ZM416.096 1583.8C422.976 1583.8 425.776 1578.76 425.776 1572.68C425.776 1566.68 422.576 1561.56 416.016 1561.56C410.496 1561.56 406.816 1565.88 406.816 1572.76C406.816 1579.72 410.496 1583.8 416.096 1583.8ZM462.222 1596.2C448.622 1596.2 440.942 1586.68 440.942 1574.44C440.942 1562.28 449.182 1552.84 461.182 1552.84C474.382 1552.84 481.422 1562.92 481.422 1577.56H451.662C452.462 1583.88 455.982 1587.8 462.142 1587.8C466.382 1587.8 468.862 1585.88 470.062 1582.76H480.782C479.262 1590.04 472.782 1596.2 462.222 1596.2ZM461.342 1561.24C455.582 1561.24 452.782 1564.68 451.822 1570.04H470.062C469.742 1564.84 466.302 1561.24 461.342 1561.24ZM497.098 1553.96V1559.56H497.338C500.138 1555.16 503.898 1552.84 509.498 1552.84C517.978 1552.84 523.658 1559.24 523.658 1568.2V1595H512.778V1569.8C512.778 1565.4 510.218 1562.28 505.658 1562.28C500.858 1562.28 497.338 1566.12 497.338 1571.72V1595H486.458V1553.96H497.098ZM549.404 1596.2C536.444 1596.2 528.364 1586.76 528.364 1574.52C528.364 1562.28 536.364 1552.84 548.844 1552.84C559.484 1552.84 566.044 1559 567.484 1567.88H556.844C556.124 1564.28 553.324 1561.56 549.324 1561.56C542.764 1561.56 539.404 1566.6 539.404 1574.52C539.404 1582.28 542.524 1587.48 549.164 1587.48C553.564 1587.48 556.684 1585.16 557.404 1580.52H567.884C567.164 1589.24 560.364 1596.2 549.404 1596.2ZM591.909 1596.2C578.309 1596.2 570.629 1586.68 570.629 1574.44C570.629 1562.28 578.869 1552.84 590.869 1552.84C604.069 1552.84 611.109 1562.92 611.109 1577.56H581.349C582.149 1583.88 585.669 1587.8 591.829 1587.8C596.069 1587.8 598.549 1585.88 599.749 1582.76H610.469C608.949 1590.04 602.469 1596.2 591.909 1596.2ZM591.029 1561.24C585.269 1561.24 582.469 1564.68 581.509 1570.04H599.749C599.429 1564.84 595.989 1561.24 591.029 1561.24Z" fill="white"/>
<path d="M795.4 1507V1449.8H811.72L819.8 1478.52C821.8 1485.72 823.4 1493.96 823.4 1493.96H823.56C823.56 1493.96 825.08 1485.72 827.08 1478.52L835.16 1449.8H851.72V1507H840.92V1474.2C840.92 1469.56 841.4 1462.36 841.4 1462.36H841.24C841.24 1462.36 839.96 1469.08 838.76 1473.24L828.92 1507H817.8L808.2 1473.24C807 1469.08 805.72 1462.36 805.72 1462.36H805.56C805.56 1462.36 806.04 1469.56 806.04 1474.2V1507H795.4ZM885.516 1507C884.876 1506.2 884.476 1504.28 884.236 1502.44H884.076C881.996 1505.56 879.036 1507.96 871.996 1507.96C863.596 1507.96 857.676 1503.56 857.676 1495.4C857.676 1486.36 865.036 1483.48 874.156 1482.2C880.956 1481.24 884.076 1480.68 884.076 1477.56C884.076 1474.6 881.756 1472.68 877.196 1472.68C872.076 1472.68 869.596 1474.52 869.276 1478.44H859.596C859.916 1471.24 865.276 1464.92 877.276 1464.92C889.596 1464.92 894.556 1470.44 894.556 1480.04V1500.92C894.556 1504.04 895.036 1505.88 895.996 1506.6V1507H885.516ZM874.636 1500.36C880.876 1500.36 884.316 1496.52 884.316 1492.52V1486.36C882.396 1487.48 879.436 1488.12 876.716 1488.76C871.036 1490.04 868.236 1491.32 868.236 1495.16C868.236 1499 870.796 1500.36 874.636 1500.36ZM920.513 1508.2C907.553 1508.2 899.473 1498.76 899.473 1486.52C899.473 1474.28 907.473 1464.84 919.953 1464.84C930.593 1464.84 937.153 1471 938.593 1479.88H927.953C927.233 1476.28 924.433 1473.56 920.433 1473.56C913.873 1473.56 910.513 1478.6 910.513 1486.52C910.513 1494.28 913.633 1499.48 920.273 1499.48C924.673 1499.48 927.793 1497.16 928.513 1492.52H938.993C938.273 1501.24 931.473 1508.2 920.513 1508.2ZM954.619 1449.8V1471.32H954.859C957.819 1467 961.179 1464.84 966.779 1464.84C975.259 1464.84 980.939 1471.24 980.939 1480.2V1507H970.059V1481.8C970.059 1477.4 967.499 1474.28 962.939 1474.28C958.139 1474.28 954.619 1478.12 954.619 1483.72V1507H943.739V1449.8H954.619ZM987.645 1507V1465.96H998.525V1507H987.645ZM987.645 1459.56V1449.8H998.525V1459.56H987.645ZM1016.18 1465.96V1471.56H1016.42C1019.22 1467.16 1022.98 1464.84 1028.58 1464.84C1037.06 1464.84 1042.74 1471.24 1042.74 1480.2V1507H1031.86V1481.8C1031.86 1477.4 1029.3 1474.28 1024.74 1474.28C1019.94 1474.28 1016.42 1478.12 1016.42 1483.72V1507H1005.54V1465.96H1016.18ZM1068.72 1508.2C1055.12 1508.2 1047.44 1498.68 1047.44 1486.44C1047.44 1474.28 1055.68 1464.84 1067.68 1464.84C1080.88 1464.84 1087.92 1474.92 1087.92 1489.56H1058.16C1058.96 1495.88 1062.48 1499.8 1068.64 1499.8C1072.88 1499.8 1075.36 1497.88 1076.56 1494.76H1087.28C1085.76 1502.04 1079.28 1508.2 1068.72 1508.2ZM1067.84 1473.24C1062.08 1473.24 1059.28 1476.68 1058.32 1482.04H1076.56C1076.24 1476.84 1072.8 1473.24 1067.84 1473.24ZM795.4 1595V1537.8H807V1585.32H833.88V1595H795.4ZM857.706 1596.2C844.106 1596.2 836.426 1586.68 836.426 1574.44C836.426 1562.28 844.666 1552.84 856.666 1552.84C869.866 1552.84 876.906 1562.92 876.906 1577.56H847.146C847.946 1583.88 851.466 1587.8 857.626 1587.8C861.866 1587.8 864.346 1585.88 865.546 1582.76H876.266C874.746 1590.04 868.266 1596.2 857.706 1596.2ZM856.826 1561.24C851.066 1561.24 848.266 1564.68 847.306 1570.04H865.546C865.226 1564.84 861.786 1561.24 856.826 1561.24ZM907.782 1595C907.142 1594.2 906.742 1592.28 906.502 1590.44H906.342C904.262 1593.56 901.302 1595.96 894.262 1595.96C885.862 1595.96 879.942 1591.56 879.942 1583.4C879.942 1574.36 887.302 1571.48 896.422 1570.2C903.222 1569.24 906.342 1568.68 906.342 1565.56C906.342 1562.6 904.022 1560.68 899.462 1560.68C894.342 1560.68 891.862 1562.52 891.542 1566.44H881.862C882.182 1559.24 887.542 1552.92 899.542 1552.92C911.862 1552.92 916.822 1558.44 916.822 1568.04V1588.92C916.822 1592.04 917.302 1593.88 918.262 1594.6V1595H907.782ZM896.902 1588.36C903.142 1588.36 906.582 1584.52 906.582 1580.52V1574.36C904.662 1575.48 901.702 1576.12 898.982 1576.76C893.302 1578.04 890.502 1579.32 890.502 1583.16C890.502 1587 893.062 1588.36 896.902 1588.36ZM934.219 1553.96V1560.52H934.459C936.939 1555.88 939.739 1553.48 944.539 1553.48C945.739 1553.48 946.459 1553.56 947.099 1553.8V1563.32H946.859C939.739 1562.6 934.619 1566.36 934.619 1575V1595H923.739V1553.96H934.219ZM962.426 1553.96V1559.56H962.666C965.466 1555.16 969.226 1552.84 974.826 1552.84C983.306 1552.84 988.986 1559.24 988.986 1568.2V1595H978.106V1569.8C978.106 1565.4 975.546 1562.28 970.986 1562.28C966.186 1562.28 962.666 1566.12 962.666 1571.72V1595H951.786V1553.96H962.426ZM995.692 1595V1553.96H1006.57V1595H995.692ZM995.692 1547.56V1537.8H1006.57V1547.56H995.692ZM1024.22 1553.96V1559.56H1024.46C1027.26 1555.16 1031.02 1552.84 1036.62 1552.84C1045.1 1552.84 1050.78 1559.24 1050.78 1568.2V1595H1039.9V1569.8C1039.9 1565.4 1037.34 1562.28 1032.78 1562.28C1027.98 1562.28 1024.46 1566.12 1024.46 1571.72V1595H1013.58V1553.96H1024.22ZM1075.57 1609C1064.37 1609 1057.49 1604.2 1056.37 1596.2H1067.17C1068.05 1598.76 1070.37 1600.76 1075.41 1600.76C1081.57 1600.76 1084.53 1597.8 1084.53 1592.2V1587.72H1084.29C1081.89 1590.44 1078.77 1592.52 1073.57 1592.52C1064.45 1592.52 1055.49 1585.32 1055.49 1572.92C1055.49 1560.68 1062.85 1552.84 1073.25 1552.84C1078.37 1552.84 1082.13 1554.84 1084.61 1558.28H1084.77V1553.96H1095.25V1591.88C1095.25 1597.64 1093.41 1601.56 1090.37 1604.36C1086.93 1607.56 1081.65 1609 1075.57 1609ZM1075.41 1583.8C1082.29 1583.8 1085.09 1578.76 1085.09 1572.68C1085.09 1566.68 1081.89 1561.56 1075.33 1561.56C1069.81 1561.56 1066.13 1565.88 1066.13 1572.76C1066.13 1579.72 1069.81 1583.8 1075.41 1583.8Z" fill="#0B1F2F"/>
<circle cx="3038.5" cy="823.5" r="654.5" fill="#0B1F2F"/>
<ellipse cx="3266.5" cy="462" rx="187.5" ry="190" fill="#D0D6E1"/>
<ellipse cx="3266.5" cy="1187" rx="187.5" ry="190" fill="#D0D6E1"/>
<circle cx="3464.5" cy="823.5" r="187.5" fill="#D0D6E1"/>
<path d="M2488.4 806V748.8H2500V796.32H2526.88V806H2488.4ZM2558.44 806C2557.8 805.2 2557.4 803.28 2557.16 801.44H2557C2554.92 804.56 2551.96 806.96 2544.92 806.96C2536.52 806.96 2530.6 802.56 2530.6 794.4C2530.6 785.36 2537.96 782.48 2547.08 781.2C2553.88 780.24 2557 779.68 2557 776.56C2557 773.6 2554.68 771.68 2550.12 771.68C2545 771.68 2542.52 773.52 2542.2 777.44H2532.52C2532.84 770.24 2538.2 763.92 2550.2 763.92C2562.52 763.92 2567.48 769.44 2567.48 779.04V799.92C2567.48 803.04 2567.96 804.88 2568.92 805.6V806H2558.44ZM2547.56 799.36C2553.8 799.36 2557.24 795.52 2557.24 791.52V785.36C2555.32 786.48 2552.36 787.12 2549.64 787.76C2543.96 789.04 2541.16 790.32 2541.16 794.16C2541.16 798 2543.72 799.36 2547.56 799.36ZM2584.88 764.96V771.52H2585.12C2587.6 766.88 2590.4 764.48 2595.2 764.48C2596.4 764.48 2597.12 764.56 2597.76 764.8V774.32H2597.52C2590.4 773.6 2585.28 777.36 2585.28 786V806H2574.4V764.96H2584.88ZM2619.35 820C2608.15 820 2601.27 815.2 2600.15 807.2H2610.95C2611.83 809.76 2614.15 811.76 2619.19 811.76C2625.35 811.76 2628.31 808.8 2628.31 803.2V798.72H2628.07C2625.67 801.44 2622.55 803.52 2617.35 803.52C2608.23 803.52 2599.27 796.32 2599.27 783.92C2599.27 771.68 2606.63 763.84 2617.03 763.84C2622.15 763.84 2625.91 765.84 2628.39 769.28H2628.55V764.96H2639.03V802.88C2639.03 808.64 2637.19 812.56 2634.15 815.36C2630.71 818.56 2625.43 820 2619.35 820ZM2619.19 794.8C2626.07 794.8 2628.87 789.76 2628.87 783.68C2628.87 777.68 2625.67 772.56 2619.11 772.56C2613.59 772.56 2609.91 776.88 2609.91 783.76C2609.91 790.72 2613.59 794.8 2619.19 794.8ZM2665.32 807.2C2651.72 807.2 2644.04 797.68 2644.04 785.44C2644.04 773.28 2652.28 763.84 2664.28 763.84C2677.48 763.84 2684.52 773.92 2684.52 788.56H2654.76C2655.56 794.88 2659.08 798.8 2665.24 798.8C2669.48 798.8 2671.96 796.88 2673.16 793.76H2683.88C2682.36 801.04 2675.88 807.2 2665.32 807.2ZM2664.44 772.24C2658.68 772.24 2655.88 775.68 2654.92 781.04H2673.16C2672.84 775.84 2669.4 772.24 2664.44 772.24ZM2703.87 806V748.8H2715.47V796.32H2742.35V806H2703.87ZM2773.91 806C2773.27 805.2 2772.87 803.28 2772.63 801.44H2772.47C2770.39 804.56 2767.43 806.96 2760.39 806.96C2751.99 806.96 2746.07 802.56 2746.07 794.4C2746.07 785.36 2753.43 782.48 2762.55 781.2C2769.35 780.24 2772.47 779.68 2772.47 776.56C2772.47 773.6 2770.15 771.68 2765.59 771.68C2760.47 771.68 2757.99 773.52 2757.67 777.44H2747.99C2748.31 770.24 2753.67 763.92 2765.67 763.92C2777.99 763.92 2782.95 769.44 2782.95 779.04V799.92C2782.95 803.04 2783.43 804.88 2784.39 805.6V806H2773.91ZM2763.03 799.36C2769.27 799.36 2772.71 795.52 2772.71 791.52V785.36C2770.79 786.48 2767.83 787.12 2765.11 787.76C2759.43 789.04 2756.63 790.32 2756.63 794.16C2756.63 798 2759.19 799.36 2763.03 799.36ZM2800.5 764.96V770.56H2800.74C2803.54 766.16 2807.3 763.84 2812.9 763.84C2821.38 763.84 2827.06 770.24 2827.06 779.2V806H2816.18V780.8C2816.18 776.4 2813.62 773.28 2809.06 773.28C2804.26 773.28 2800.74 777.12 2800.74 782.72V806H2789.86V764.96H2800.5ZM2851.85 820C2840.65 820 2833.77 815.2 2832.65 807.2H2843.45C2844.33 809.76 2846.65 811.76 2851.69 811.76C2857.85 811.76 2860.81 808.8 2860.81 803.2V798.72H2860.57C2858.17 801.44 2855.05 803.52 2849.85 803.52C2840.73 803.52 2831.77 796.32 2831.77 783.92C2831.77 771.68 2839.13 763.84 2849.53 763.84C2854.65 763.84 2858.41 765.84 2860.89 769.28H2861.05V764.96H2871.53V802.88C2871.53 808.64 2869.69 812.56 2866.65 815.36C2863.21 818.56 2857.93 820 2851.85 820ZM2851.69 794.8C2858.57 794.8 2861.37 789.76 2861.37 783.68C2861.37 777.68 2858.17 772.56 2851.61 772.56C2846.09 772.56 2842.41 776.88 2842.41 783.76C2842.41 790.72 2846.09 794.8 2851.69 794.8ZM2914.94 806H2904.46V801.2H2904.22C2901.42 804.96 2898.22 807.12 2892.46 807.12C2883.34 807.12 2878.22 801.28 2878.22 792.32V764.96H2889.02V790.48C2889.02 795.28 2891.18 797.92 2895.82 797.92C2900.94 797.92 2904.06 794.08 2904.06 788.64V764.96H2914.94V806ZM2947.81 806C2947.17 805.2 2946.77 803.28 2946.53 801.44H2946.37C2944.29 804.56 2941.33 806.96 2934.29 806.96C2925.89 806.96 2919.97 802.56 2919.97 794.4C2919.97 785.36 2927.33 782.48 2936.45 781.2C2943.25 780.24 2946.37 779.68 2946.37 776.56C2946.37 773.6 2944.05 771.68 2939.49 771.68C2934.37 771.68 2931.89 773.52 2931.57 777.44H2921.89C2922.21 770.24 2927.57 763.92 2939.57 763.92C2951.89 763.92 2956.85 769.44 2956.85 779.04V799.92C2956.85 803.04 2957.33 804.88 2958.29 805.6V806H2947.81ZM2936.93 799.36C2943.17 799.36 2946.61 795.52 2946.61 791.52V785.36C2944.69 786.48 2941.73 787.12 2939.01 787.76C2933.33 789.04 2930.53 790.32 2930.53 794.16C2930.53 798 2933.09 799.36 2936.93 799.36ZM2981.85 820C2970.65 820 2963.77 815.2 2962.65 807.2H2973.45C2974.33 809.76 2976.65 811.76 2981.69 811.76C2987.85 811.76 2990.81 808.8 2990.81 803.2V798.72H2990.57C2988.17 801.44 2985.05 803.52 2979.85 803.52C2970.73 803.52 2961.77 796.32 2961.77 783.92C2961.77 771.68 2969.13 763.84 2979.53 763.84C2984.65 763.84 2988.41 765.84 2990.89 769.28H2991.05V764.96H3001.53V802.88C3001.53 808.64 2999.69 812.56 2996.65 815.36C2993.21 818.56 2987.93 820 2981.85 820ZM2981.69 794.8C2988.57 794.8 2991.37 789.76 2991.37 783.68C2991.37 777.68 2988.17 772.56 2981.61 772.56C2976.09 772.56 2972.41 776.88 2972.41 783.76C2972.41 790.72 2976.09 794.8 2981.69 794.8ZM3027.82 807.2C3014.22 807.2 3006.54 797.68 3006.54 785.44C3006.54 773.28 3014.78 763.84 3026.78 763.84C3039.98 763.84 3047.02 773.92 3047.02 788.56H3017.26C3018.06 794.88 3021.58 798.8 3027.74 798.8C3031.98 798.8 3034.46 796.88 3035.66 793.76H3046.38C3044.86 801.04 3038.38 807.2 3027.82 807.2ZM3026.94 772.24C3021.18 772.24 3018.38 775.68 3017.42 781.04H3035.66C3035.34 775.84 3031.9 772.24 3026.94 772.24ZM2488.4 894V836.8H2504.72L2512.8 865.52C2514.8 872.72 2516.4 880.96 2516.4 880.96H2516.56C2516.56 880.96 2518.08 872.72 2520.08 865.52L2528.16 836.8H2544.72V894H2533.92V861.2C2533.92 856.56 2534.4 849.36 2534.4 849.36H2534.24C2534.24 849.36 2532.96 856.08 2531.76 860.24L2521.92 894H2510.8L2501.2 860.24C2500 856.08 2498.72 849.36 2498.72 849.36H2498.56C2498.56 849.36 2499.04 856.56 2499.04 861.2V894H2488.4ZM2572.12 895.2C2559.4 895.2 2550.68 885.76 2550.68 873.52C2550.68 861.28 2559.4 851.84 2572.12 851.84C2584.84 851.84 2593.56 861.28 2593.56 873.52C2593.56 885.76 2584.84 895.2 2572.12 895.2ZM2572.12 886.88C2578.76 886.88 2582.52 881.52 2582.52 873.52C2582.52 865.52 2578.76 860.08 2572.12 860.08C2565.4 860.08 2561.72 865.52 2561.72 873.52C2561.72 881.52 2565.4 886.88 2572.12 886.88ZM2613.97 895.2C2603.65 895.2 2596.61 886.8 2596.61 873.52C2596.61 860.72 2603.89 851.84 2614.13 851.84C2619.89 851.84 2623.49 854.48 2625.73 857.92H2625.97V836.8H2636.85V894H2626.37V888.64H2626.21C2623.81 892.56 2619.73 895.2 2613.97 895.2ZM2616.37 886.08C2622.85 886.08 2626.21 881.28 2626.21 873.76C2626.21 865.92 2623.65 860.64 2616.69 860.64C2610.69 860.64 2607.65 865.92 2607.65 873.52C2607.65 881.44 2610.77 886.08 2616.37 886.08ZM2663.21 895.2C2649.61 895.2 2641.93 885.68 2641.93 873.44C2641.93 861.28 2650.17 851.84 2662.17 851.84C2675.37 851.84 2682.41 861.92 2682.41 876.56H2652.65C2653.45 882.88 2656.97 886.8 2663.13 886.8C2667.37 886.8 2669.85 884.88 2671.05 881.76H2681.77C2680.25 889.04 2673.77 895.2 2663.21 895.2ZM2662.33 860.24C2656.57 860.24 2653.77 863.68 2652.81 869.04H2671.05C2670.73 863.84 2667.29 860.24 2662.33 860.24ZM2687.6 894V836.8H2698.48V894H2687.6ZM2722.29 895.2C2710.37 895.2 2703.73 889.44 2703.09 880.72H2713.17C2713.88 885.44 2717.25 887.52 2722.12 887.52C2726.93 887.52 2729.65 885.68 2729.65 882.8C2729.65 878.88 2724.45 878.48 2718.85 877.36C2711.49 875.92 2704.29 873.92 2704.29 864.96C2704.29 856.08 2711.65 851.84 2721.01 851.84C2731.81 851.84 2737.81 857.2 2738.61 865.44H2728.77C2728.29 861.04 2725.49 859.44 2720.85 859.44C2716.61 859.44 2713.81 861.04 2713.81 864C2713.81 867.52 2719.25 867.84 2725.09 869.04C2731.97 870.48 2739.57 872.4 2739.57 882C2739.57 890.24 2732.53 895.2 2722.29 895.2ZM2771.91 904.48C2765.43 895.6 2759.75 884 2759.75 869.36C2759.75 854.24 2765.51 842.08 2771.83 833.68H2781.11C2775.27 842.88 2771.11 853.92 2771.11 869.36C2771.11 883.76 2775.51 894.96 2781.03 904.48H2771.91ZM2786.45 894V836.8H2798.05V884.32H2824.93V894H2786.45ZM2831.13 894V836.8H2842.73V884.32H2869.61V894H2831.13ZM2875.82 894V836.8H2892.14L2900.22 865.52C2902.22 872.72 2903.82 880.96 2903.82 880.96H2903.98C2903.98 880.96 2905.5 872.72 2907.5 865.52L2915.58 836.8H2932.14V894H2921.34V861.2C2921.34 856.56 2921.82 849.36 2921.82 849.36H2921.66C2921.66 849.36 2920.38 856.08 2919.18 860.24L2909.34 894H2898.22L2888.62 860.24C2887.42 856.08 2886.14 849.36 2886.14 849.36H2885.98C2885.98 849.36 2886.46 856.56 2886.46 861.2V894H2875.82ZM2956.74 895.2C2944.82 895.2 2938.18 889.44 2937.54 880.72H2947.62C2948.34 885.44 2951.7 887.52 2956.58 887.52C2961.38 887.52 2964.1 885.68 2964.1 882.8C2964.1 878.88 2958.9 878.48 2953.3 877.36C2945.94 875.92 2938.74 873.92 2938.74 864.96C2938.74 856.08 2946.1 851.84 2955.46 851.84C2966.26 851.84 2972.26 857.2 2973.06 865.44H2963.22C2962.74 861.04 2959.94 859.44 2955.3 859.44C2951.06 859.44 2948.26 861.04 2948.26 864C2948.26 867.52 2953.7 867.84 2959.54 869.04C2966.42 870.48 2974.02 872.4 2974.02 882C2974.02 890.24 2966.98 895.2 2956.74 895.2ZM2976.45 904.48C2981.97 894.96 2986.37 883.76 2986.37 869.36C2986.37 853.92 2982.21 842.88 2976.37 833.68H2985.65C2991.97 842.08 2997.73 854.24 2997.73 869.36C2997.73 884 2992.05 895.6 2985.57 904.48H2976.45Z" fill="white"/>
<circle cx="3038.5" cy="2200.5" r="654.5" fill="#0B1F2F"/>
<ellipse cx="3266.5" cy="1839" rx="187.5" ry="190" fill="#D0D6E1"/>
<ellipse cx="3266.5" cy="2564" rx="187.5" ry="190" fill="#D0D6E1"/>
<circle cx="3464.5" cy="2200.5" r="187.5" fill="#D0D6E1"/>
<path d="M2488.4 2183V2125.8H2510.72C2526 2125.8 2535.84 2138.12 2535.84 2155C2535.84 2164.28 2532.72 2172.44 2526.72 2177.48C2522.48 2181 2516.96 2183 2509.76 2183H2488.4ZM2500 2173H2508.96C2519.84 2173 2524.08 2166.36 2524.08 2155C2524.08 2143.64 2519.12 2135.72 2509.28 2135.72H2500V2173ZM2541.27 2183V2141.96H2552.15V2183H2541.27ZM2541.27 2135.56V2125.8H2552.15V2135.56H2541.27ZM2556.76 2149.48V2141.96H2562.36V2138.6C2562.36 2128.6 2570.12 2125.08 2580.2 2126.2V2134.6C2575.48 2134.36 2573.24 2135 2573.24 2139.24V2141.96H2585.48V2138.28C2585.48 2128.28 2593.24 2124.76 2603.72 2125.88V2134.28C2598.6 2134.04 2596.36 2134.68 2596.36 2138.92V2141.96H2603.72V2149.48H2596.36V2183H2585.48V2149.48H2573.24V2183H2562.36V2149.48H2556.76ZM2645.09 2183H2634.61V2178.2H2634.37C2631.57 2181.96 2628.37 2184.12 2622.61 2184.12C2613.49 2184.12 2608.37 2178.28 2608.37 2169.32V2141.96H2619.17V2167.48C2619.17 2172.28 2621.33 2174.92 2625.97 2174.92C2631.09 2174.92 2634.21 2171.08 2634.21 2165.64V2141.96H2645.09V2183ZM2668.77 2184.2C2656.85 2184.2 2650.21 2178.44 2649.57 2169.72H2659.65C2660.37 2174.44 2663.73 2176.52 2668.61 2176.52C2673.41 2176.52 2676.13 2174.68 2676.13 2171.8C2676.13 2167.88 2670.93 2167.48 2665.33 2166.36C2657.97 2164.92 2650.77 2162.92 2650.77 2153.96C2650.77 2145.08 2658.13 2140.84 2667.49 2140.84C2678.29 2140.84 2684.29 2146.2 2685.09 2154.44H2675.25C2674.77 2150.04 2671.97 2148.44 2667.33 2148.44C2663.09 2148.44 2660.29 2150.04 2660.29 2153C2660.29 2156.52 2665.73 2156.84 2671.57 2158.04C2678.45 2159.48 2686.05 2161.4 2686.05 2171C2686.05 2179.24 2679.01 2184.2 2668.77 2184.2ZM2690.96 2183V2141.96H2701.84V2183H2690.96ZM2690.96 2135.56V2125.8H2701.84V2135.56H2690.96ZM2728.29 2184.2C2715.57 2184.2 2706.85 2174.76 2706.85 2162.52C2706.85 2150.28 2715.57 2140.84 2728.29 2140.84C2741.01 2140.84 2749.73 2150.28 2749.73 2162.52C2749.73 2174.76 2741.01 2184.2 2728.29 2184.2ZM2728.29 2175.88C2734.93 2175.88 2738.69 2170.52 2738.69 2162.52C2738.69 2154.52 2734.93 2149.08 2728.29 2149.08C2721.57 2149.08 2717.89 2154.52 2717.89 2162.52C2717.89 2170.52 2721.57 2175.88 2728.29 2175.88ZM2765.43 2141.96V2147.56H2765.67C2768.47 2143.16 2772.23 2140.84 2777.83 2140.84C2786.31 2140.84 2791.99 2147.24 2791.99 2156.2V2183H2781.11V2157.8C2781.11 2153.4 2778.55 2150.28 2773.99 2150.28C2769.19 2150.28 2765.67 2154.12 2765.67 2159.72V2183H2754.79V2141.96H2765.43ZM2488.4 2271V2213.8H2504.72L2512.8 2242.52C2514.8 2249.72 2516.4 2257.96 2516.4 2257.96H2516.56C2516.56 2257.96 2518.08 2249.72 2520.08 2242.52L2528.16 2213.8H2544.72V2271H2533.92V2238.2C2533.92 2233.56 2534.4 2226.36 2534.4 2226.36H2534.24C2534.24 2226.36 2532.96 2233.08 2531.76 2237.24L2521.92 2271H2510.8L2501.2 2237.24C2500 2233.08 2498.72 2226.36 2498.72 2226.36H2498.56C2498.56 2226.36 2499.04 2233.56 2499.04 2238.2V2271H2488.4ZM2572.12 2272.2C2559.4 2272.2 2550.68 2262.76 2550.68 2250.52C2550.68 2238.28 2559.4 2228.84 2572.12 2228.84C2584.84 2228.84 2593.56 2238.28 2593.56 2250.52C2593.56 2262.76 2584.84 2272.2 2572.12 2272.2ZM2572.12 2263.88C2578.76 2263.88 2582.52 2258.52 2582.52 2250.52C2582.52 2242.52 2578.76 2237.08 2572.12 2237.08C2565.4 2237.08 2561.72 2242.52 2561.72 2250.52C2561.72 2258.52 2565.4 2263.88 2572.12 2263.88ZM2613.97 2272.2C2603.65 2272.2 2596.61 2263.8 2596.61 2250.52C2596.61 2237.72 2603.89 2228.84 2614.13 2228.84C2619.89 2228.84 2623.49 2231.48 2625.73 2234.92H2625.97V2213.8H2636.85V2271H2626.37V2265.64H2626.21C2623.81 2269.56 2619.73 2272.2 2613.97 2272.2ZM2616.37 2263.08C2622.85 2263.08 2626.21 2258.28 2626.21 2250.76C2626.21 2242.92 2623.65 2237.64 2616.69 2237.64C2610.69 2237.64 2607.65 2242.92 2607.65 2250.52C2607.65 2258.44 2610.77 2263.08 2616.37 2263.08ZM2663.21 2272.2C2649.61 2272.2 2641.93 2262.68 2641.93 2250.44C2641.93 2238.28 2650.17 2228.84 2662.17 2228.84C2675.37 2228.84 2682.41 2238.92 2682.41 2253.56H2652.65C2653.45 2259.88 2656.97 2263.8 2663.13 2263.8C2667.37 2263.8 2669.85 2261.88 2671.05 2258.76H2681.77C2680.25 2266.04 2673.77 2272.2 2663.21 2272.2ZM2662.33 2237.24C2656.57 2237.24 2653.77 2240.68 2652.81 2246.04H2671.05C2670.73 2240.84 2667.29 2237.24 2662.33 2237.24ZM2687.6 2271V2213.8H2698.48V2271H2687.6ZM2722.29 2272.2C2710.37 2272.2 2703.73 2266.44 2703.09 2257.72H2713.17C2713.88 2262.44 2717.25 2264.52 2722.12 2264.52C2726.93 2264.52 2729.65 2262.68 2729.65 2259.8C2729.65 2255.88 2724.45 2255.48 2718.85 2254.36C2711.49 2252.92 2704.29 2250.92 2704.29 2241.96C2704.29 2233.08 2711.65 2228.84 2721.01 2228.84C2731.81 2228.84 2737.81 2234.2 2738.61 2242.44H2728.77C2728.29 2238.04 2725.49 2236.44 2720.85 2236.44C2716.61 2236.44 2713.81 2238.04 2713.81 2241C2713.81 2244.52 2719.25 2244.84 2725.09 2246.04C2731.97 2247.48 2739.57 2249.4 2739.57 2259C2739.57 2267.24 2732.53 2272.2 2722.29 2272.2Z" fill="white"/>
<path d="M1796.13 1405V1347.8H1807.73V1395.32H1834.61V1405H1796.13ZM1840.82 1405V1347.8H1852.42V1395.32H1879.3V1405H1840.82ZM1885.51 1405V1347.8H1901.83L1909.91 1376.52C1911.91 1383.72 1913.51 1391.96 1913.51 1391.96H1913.67C1913.67 1391.96 1915.19 1383.72 1917.19 1376.52L1925.27 1347.8H1941.83V1405H1931.03V1372.2C1931.03 1367.56 1931.51 1360.36 1931.51 1360.36H1931.35C1931.35 1360.36 1930.07 1367.08 1928.87 1371.24L1919.03 1405H1907.91L1898.31 1371.24C1897.11 1367.08 1895.83 1360.36 1895.83 1360.36H1895.67C1895.67 1360.36 1896.15 1367.56 1896.15 1372.2V1405H1885.51Z" fill="white"/>
<path d="M1812.5 1673V1615.8H1834.82C1850.1 1615.8 1859.94 1628.12 1859.94 1645C1859.94 1654.28 1856.82 1662.44 1850.82 1667.48C1846.58 1671 1841.06 1673 1833.86 1673H1812.5ZM1824.1 1663H1833.06C1843.94 1663 1848.18 1656.36 1848.18 1645C1848.18 1633.64 1843.22 1625.72 1833.38 1625.72H1824.1V1663ZM1866.33 1673V1615.8H1877.93V1673H1866.33ZM1886.8 1673V1615.8H1927.76V1625.64H1898.4V1639.4H1923.28V1649.32H1898.4V1673H1886.8Z" fill="white"/>
<path d="M1371.32 1507L1370.92 1499.32H1370.76C1366.84 1505.88 1361.48 1508.2 1354.68 1508.2C1346.04 1508.2 1339.32 1505.08 1334.6 1499.88C1329.88 1494.6 1327.16 1487.24 1327.16 1478.6C1327.16 1469.08 1330.52 1460.76 1336.52 1455.24C1341.16 1451 1347.24 1448.68 1354.92 1448.68C1369.32 1448.68 1377.56 1456.6 1379.4 1467.8H1368.04C1366.76 1462.28 1362.52 1458.28 1355.16 1458.28C1344.36 1458.28 1339 1467.24 1339 1478.6C1339 1490.28 1345.16 1498.84 1355 1498.84C1363.88 1498.84 1369.72 1492.2 1369.72 1485.88V1485.56H1355.96V1476.6H1380.04V1507H1371.32ZM1406.55 1508.2C1392.95 1508.2 1385.27 1498.68 1385.27 1486.44C1385.27 1474.28 1393.51 1464.84 1405.51 1464.84C1418.71 1464.84 1425.75 1474.92 1425.75 1489.56H1395.99C1396.79 1495.88 1400.31 1499.8 1406.47 1499.8C1410.71 1499.8 1413.19 1497.88 1414.39 1494.76H1425.11C1423.59 1502.04 1417.11 1508.2 1406.55 1508.2ZM1405.67 1473.24C1399.91 1473.24 1397.11 1476.68 1396.15 1482.04H1414.39C1414.07 1476.84 1410.63 1473.24 1405.67 1473.24ZM1441.43 1465.96V1471.56H1441.67C1444.47 1467.16 1448.23 1464.84 1453.83 1464.84C1462.31 1464.84 1467.99 1471.24 1467.99 1480.2V1507H1457.11V1481.8C1457.11 1477.4 1454.55 1474.28 1449.99 1474.28C1445.19 1474.28 1441.67 1478.12 1441.67 1483.72V1507H1430.79V1465.96H1441.43ZM1493.97 1508.2C1480.37 1508.2 1472.69 1498.68 1472.69 1486.44C1472.69 1474.28 1480.93 1464.84 1492.93 1464.84C1506.13 1464.84 1513.17 1474.92 1513.17 1489.56H1483.41C1484.21 1495.88 1487.73 1499.8 1493.89 1499.8C1498.13 1499.8 1500.61 1497.88 1501.81 1494.76H1512.53C1511.01 1502.04 1504.53 1508.2 1493.97 1508.2ZM1493.09 1473.24C1487.33 1473.24 1484.53 1476.68 1483.57 1482.04H1501.81C1501.49 1476.84 1498.05 1473.24 1493.09 1473.24ZM1528.69 1465.96V1472.52H1528.93C1531.41 1467.88 1534.21 1465.48 1539.01 1465.48C1540.21 1465.48 1540.93 1465.56 1541.57 1465.8V1475.32H1541.33C1534.21 1474.6 1529.09 1478.36 1529.09 1487V1507H1518.21V1465.96H1528.69ZM1570.92 1507C1570.28 1506.2 1569.88 1504.28 1569.64 1502.44H1569.48C1567.4 1505.56 1564.44 1507.96 1557.4 1507.96C1549 1507.96 1543.08 1503.56 1543.08 1495.4C1543.08 1486.36 1550.44 1483.48 1559.56 1482.2C1566.36 1481.24 1569.48 1480.68 1569.48 1477.56C1569.48 1474.6 1567.16 1472.68 1562.6 1472.68C1557.48 1472.68 1555 1474.52 1554.68 1478.44H1545C1545.32 1471.24 1550.68 1464.92 1562.68 1464.92C1575 1464.92 1579.96 1470.44 1579.96 1480.04V1500.92C1579.96 1504.04 1580.44 1505.88 1581.4 1506.6V1507H1570.92ZM1560.04 1500.36C1566.28 1500.36 1569.72 1496.52 1569.72 1492.52V1486.36C1567.8 1487.48 1564.84 1488.12 1562.12 1488.76C1556.44 1490.04 1553.64 1491.32 1553.64 1495.16C1553.64 1499 1556.2 1500.36 1560.04 1500.36ZM1583.7 1473.16V1465.96H1589.38V1453.16H1600.02V1465.96H1607.06V1473.16H1600.02V1494.92C1600.02 1497.96 1601.7 1499 1604.1 1499C1605.46 1499 1607.3 1498.92 1607.3 1498.92V1506.92C1607.3 1506.92 1604.82 1507.08 1600.5 1507.08C1595.22 1507.08 1589.38 1505 1589.38 1497.24V1473.16H1583.7ZM1612.66 1507V1465.96H1623.54V1507H1612.66ZM1612.66 1459.56V1449.8H1623.54V1459.56H1612.66ZM1641.43 1507L1627.19 1465.96H1638.23L1644.79 1487.24C1645.99 1491.16 1646.63 1493.8 1646.63 1493.8H1646.79C1646.79 1493.8 1647.35 1491.16 1648.55 1487.24L1655.27 1465.96H1666.15L1651.83 1507H1641.43ZM1687.96 1508.2C1674.36 1508.2 1666.68 1498.68 1666.68 1486.44C1666.68 1474.28 1674.92 1464.84 1686.92 1464.84C1700.12 1464.84 1707.16 1474.92 1707.16 1489.56H1677.4C1678.2 1495.88 1681.72 1499.8 1687.88 1499.8C1692.12 1499.8 1694.6 1497.88 1695.8 1494.76H1706.52C1705 1502.04 1698.52 1508.2 1687.96 1508.2ZM1687.08 1473.24C1681.32 1473.24 1678.52 1476.68 1677.56 1482.04H1695.8C1695.48 1476.84 1692.04 1473.24 1687.08 1473.24ZM1325.24 1595L1345.16 1537.8H1357.16L1377.32 1595H1365.24L1361.4 1582.84H1340.76L1337 1595H1325.24ZM1348.6 1557.48L1343.48 1573.96H1358.6L1353.48 1557.48C1352.52 1554.44 1351.16 1548.68 1351.16 1548.68H1351C1351 1548.68 1349.56 1554.44 1348.6 1557.48ZM1382.21 1595V1537.8H1393.81V1595H1382.21Z" fill="#0B1F2F"/>
<path d="M3175.53 449.784C3164.16 449.784 3156.77 441.104 3156.77 428.952C3156.77 417.192 3163.82 408.064 3175.75 408.064C3185.1 408.064 3190.76 413.44 3191.82 420.832H3186.9C3185.94 415.848 3181.97 412.432 3175.64 412.432C3166.85 412.432 3161.92 419.544 3161.92 428.952C3161.92 438.752 3167.35 445.36 3175.7 445.36C3183.26 445.36 3186.84 440.208 3187.34 434.328H3192.33C3192.27 438.304 3190.37 442.784 3187.51 445.584C3184.71 448.328 3180.62 449.784 3175.53 449.784ZM3201.85 408.96V423.856H3201.96C3204.03 421.112 3206.94 419.376 3211.14 419.376C3217.19 419.376 3220.89 422.68 3220.89 428.672V449H3216.35V429.064C3216.35 425.312 3213.89 423.184 3209.8 423.184C3205.21 423.184 3201.85 426.432 3201.85 431.192V449H3197.31V408.96H3201.85ZM3249.63 449.28C3246.66 449.28 3245.1 447.936 3244.65 444.968H3244.59C3242.86 447.208 3239.89 449.56 3234.96 449.56C3229.47 449.56 3225.16 446.984 3225.16 441.496C3225.16 434.664 3230.54 433.264 3237.76 432.144C3241.85 431.528 3244.7 431.136 3244.7 428C3244.7 424.752 3242.35 422.904 3238.21 422.904C3233.5 422.904 3231.15 424.92 3230.98 429.288H3226.62C3226.78 423.688 3230.48 419.488 3238.15 419.488C3244.31 419.488 3248.85 421.784 3248.85 428.672V442.448C3248.85 444.8 3249.41 446.088 3251.93 445.528H3252.1V448.832C3251.54 449.056 3250.81 449.28 3249.63 449.28ZM3235.97 446.088C3242.02 446.088 3244.76 441.664 3244.76 438.304V433.376C3243.25 434.328 3240.62 435.056 3238.15 435.504C3233.62 436.344 3229.98 437.128 3229.98 441.384C3229.98 445.248 3233 446.088 3235.97 446.088ZM3253.05 423.744V420.048H3257.25V410.92H3261.78V420.048H3267.38V423.744H3261.78V442.56C3261.78 444.576 3262.85 445.248 3264.7 445.248C3265.59 445.248 3266.6 445.024 3267.1 444.856H3267.27V448.776C3266.21 449 3264.98 449.168 3263.63 449.168C3259.94 449.168 3257.25 447.656 3257.25 443.568V423.744H3253.05ZM3304.1 449L3302.64 443.736H3302.53C3299.62 447.824 3295.31 449.84 3290.04 449.84C3278.79 449.84 3271.23 441.272 3271.23 429.12C3271.23 417.36 3277.89 408.12 3290.49 408.12C3299.79 408.12 3305.5 413.16 3306.79 421H3301.58C3300.46 415.68 3296.71 412.488 3290.38 412.488C3280.75 412.488 3276.38 419.712 3276.38 429.12C3276.38 438.92 3282.09 445.472 3290.21 445.472C3298.44 445.472 3302.31 439.872 3302.31 433.152V432.2H3290.27V427.832H3307.35V449H3304.1ZM3314.3 449V408.96H3330.99C3335.19 408.96 3338.44 410.36 3340.51 412.824C3342.19 414.784 3343.2 417.416 3343.2 420.44C3343.2 427.776 3339 432.2 3330.26 432.2H3319.34V449H3314.3ZM3319.34 413.328V428.112H3329.87C3335.53 428.112 3338.21 425.256 3338.21 420.664C3338.21 415.848 3335.25 413.328 3330.15 413.328H3319.34ZM3345.52 413.384V408.96H3377.22V413.384H3363.89V449H3358.85V413.384H3345.52ZM3170.1 519.608C3165.51 512.608 3161.92 504.768 3161.92 494.24C3161.92 484.496 3165.84 476.712 3170.1 470.776H3173.79C3170.1 477.048 3167.24 485.056 3167.24 494.24C3167.24 504.152 3169.59 511.88 3173.79 519.608H3170.1ZM3196.79 513.84C3184.7 513.84 3177.19 504.936 3177.19 492.952C3177.19 480.968 3184.7 472.064 3196.79 472.064C3208.89 472.064 3216.39 480.968 3216.39 492.952C3216.39 504.936 3208.89 513.84 3196.79 513.84ZM3196.79 509.416C3206.2 509.416 3211.24 502.36 3211.24 492.952C3211.24 483.544 3206.2 476.432 3196.79 476.432C3187.39 476.432 3182.35 483.544 3182.35 492.952C3182.35 502.36 3187.39 509.416 3196.79 509.416ZM3221.73 522.296V484.048H3226.26V488.136H3226.38C3228.56 485.168 3231.47 483.376 3235.67 483.376C3243.01 483.376 3248.1 488.976 3248.1 498.608C3248.1 507.904 3243.34 513.84 3235.5 513.84C3231.58 513.84 3228.78 512.664 3226.38 509.584H3226.26V522.296H3221.73ZM3235.17 510.032C3240.71 510.032 3243.46 505.216 3243.46 498.664C3243.46 492.168 3240.71 487.24 3235.22 487.24C3228.9 487.24 3225.98 492.392 3225.98 498.664C3225.98 504.936 3228.5 510.032 3235.17 510.032ZM3265 513.784C3256.15 513.784 3251 506.952 3251 498.552C3251 490.152 3256.49 483.32 3264.72 483.32C3273.4 483.32 3278.05 490.04 3278.05 499.616H3255.65C3255.99 505.496 3259.18 509.976 3265 509.976C3269.2 509.976 3272 507.96 3273.01 504.04H3277.43C3276.09 510.256 3271.55 513.784 3265 513.784ZM3264.72 486.904C3259.35 486.904 3256.43 490.936 3255.76 496.2H3273.18C3272.9 490.432 3269.93 486.904 3264.72 486.904ZM3287.02 484.048V487.856H3287.13C3289.21 485.112 3292.12 483.376 3296.32 483.376C3302.37 483.376 3306.06 486.68 3306.06 492.672V513H3301.53V493.064C3301.53 489.312 3299.06 487.184 3294.97 487.184C3290.38 487.184 3287.02 490.432 3287.02 495.192V513H3282.49V484.048H3287.02ZM3309.55 513L3324.28 472.96H3329.94L3344.72 513H3339.23L3334.98 500.792H3319.02L3314.7 513H3309.55ZM3325.23 483.264L3320.47 496.704H3333.58L3328.98 483.264C3328.2 481.024 3327.19 477.608 3327.19 477.608H3327.08C3327.08 477.608 3326.02 480.968 3325.23 483.264ZM3349.17 513V472.96H3354.21V513H3349.17ZM3359.28 519.608C3363.48 511.88 3365.83 504.152 3365.83 494.24C3365.83 485.056 3362.97 477.048 3359.28 470.776H3362.97C3367.23 476.712 3371.15 484.496 3371.15 494.24C3371.15 504.768 3367.57 512.608 3362.97 519.608H3359.28Z" fill="#0B1F2F"/>
<path d="M3411.43 807V766.96H3428.4C3432.6 766.96 3435.79 768.08 3438.03 770.432C3439.66 772.112 3440.61 774.408 3440.61 777.264C3440.61 781.688 3438.14 784.432 3434.17 785.664V785.832C3438.7 786.896 3442.23 790.144 3442.23 795.52C3442.23 798.6 3441.17 801.232 3439.32 803.192C3437.08 805.6 3433.61 807 3429.3 807H3411.43ZM3416.47 802.464H3429.07C3431.93 802.464 3434 801.736 3435.34 800.448C3436.46 799.272 3437.14 797.704 3437.14 795.8C3437.14 790.816 3433.61 788.352 3428.74 788.352H3416.47V802.464ZM3416.47 784.096H3427.78C3432.66 784.096 3435.57 781.688 3435.57 777.544C3435.57 773.68 3432.94 771.328 3428.46 771.328H3416.47V784.096ZM3469.53 807.28C3466.57 807.28 3465 805.936 3464.55 802.968H3464.49C3462.76 805.208 3459.79 807.56 3454.86 807.56C3449.37 807.56 3445.06 804.984 3445.06 799.496C3445.06 792.664 3450.44 791.264 3457.66 790.144C3461.75 789.528 3464.61 789.136 3464.61 786C3464.61 782.752 3462.25 780.904 3458.11 780.904C3453.41 780.904 3451.05 782.92 3450.89 787.288H3446.52C3446.69 781.688 3450.38 777.488 3458.05 777.488C3464.21 777.488 3468.75 779.784 3468.75 786.672V800.448C3468.75 802.8 3469.31 804.088 3471.83 803.528H3472V806.832C3471.44 807.056 3470.71 807.28 3469.53 807.28ZM3455.87 804.088C3461.92 804.088 3464.66 799.664 3464.66 796.304V791.376C3463.15 792.328 3460.52 793.056 3458.05 793.504C3453.52 794.344 3449.88 795.128 3449.88 799.384C3449.88 803.248 3452.9 804.088 3455.87 804.088ZM3479.88 778.048V782.864H3479.99C3481.73 780.064 3484.75 777.712 3488.62 777.712C3489.46 777.712 3489.91 777.824 3490.47 778.048V782.416H3490.3C3489.63 782.192 3489.18 782.136 3488.28 782.136C3483.8 782.136 3479.88 785.496 3479.88 790.928V807H3475.35V778.048H3479.88ZM3504.65 807.84C3496.75 807.84 3491.82 801.904 3491.82 792.608C3491.82 782.976 3497.37 777.376 3504.54 777.376C3508.62 777.376 3511.76 779.392 3513.61 782.136H3513.72V766.96H3518.26V807H3513.72V803.472H3513.61C3511.42 806.272 3508.74 807.84 3504.65 807.84ZM3504.82 804.032C3511.26 804.032 3514 799.216 3514 792.664C3514 785.944 3510.75 781.24 3504.76 781.24C3499.27 781.24 3496.47 786.168 3496.47 792.664C3496.47 799.216 3499.27 804.032 3504.82 804.032ZM3372.36 877.608C3367.77 870.608 3364.19 862.768 3364.19 852.24C3364.19 842.496 3368.11 834.712 3372.36 828.776H3376.06C3372.36 835.048 3369.51 843.056 3369.51 852.24C3369.51 862.152 3371.86 869.88 3376.06 877.608H3372.36ZM3412.33 871L3410.87 865.736H3410.76C3407.85 869.824 3403.54 871.84 3398.27 871.84C3387.02 871.84 3379.46 863.272 3379.46 851.12C3379.46 839.36 3386.12 830.12 3398.72 830.12C3408.02 830.12 3413.73 835.16 3415.02 843H3409.81C3408.69 837.68 3404.94 834.488 3398.61 834.488C3388.98 834.488 3384.61 841.712 3384.61 851.12C3384.61 860.92 3390.32 867.472 3398.44 867.472C3406.67 867.472 3410.54 861.872 3410.54 855.152V854.2H3398.5V849.832H3415.58V871H3412.33ZM3434.24 871.784C3425.61 871.784 3420.24 864.952 3420.24 856.552C3420.24 848.152 3425.61 841.32 3434.24 841.32C3442.92 841.32 3448.18 848.152 3448.18 856.552C3448.18 864.952 3442.92 871.784 3434.24 871.784ZM3434.24 867.976C3440.4 867.976 3443.53 862.936 3443.53 856.552C3443.53 850.168 3440.4 845.072 3434.24 845.072C3428.08 845.072 3424.89 850.168 3424.89 856.552C3424.89 862.936 3428.08 867.976 3434.24 867.976ZM3465.08 871.784C3456.46 871.784 3451.08 864.952 3451.08 856.552C3451.08 848.152 3456.46 841.32 3465.08 841.32C3473.76 841.32 3479.03 848.152 3479.03 856.552C3479.03 864.952 3473.76 871.784 3465.08 871.784ZM3465.08 867.976C3471.24 867.976 3474.38 862.936 3474.38 856.552C3474.38 850.168 3471.24 845.072 3465.08 845.072C3458.92 845.072 3455.73 850.168 3455.73 856.552C3455.73 862.936 3458.92 867.976 3465.08 867.976ZM3495.08 880.632C3487.58 880.632 3483.32 877.608 3482.82 872.624H3487.02C3487.47 875.816 3490.49 877.048 3494.97 877.048C3500.29 877.048 3503.26 874.64 3503.26 869.6V865.512H3503.15C3501.02 868.256 3498.72 869.992 3494.58 869.992C3487.08 869.992 3481.92 864 3481.92 855.656C3481.92 846.64 3487.58 841.376 3494.3 841.376C3498.5 841.376 3501.19 843 3503.15 845.744H3503.26V842.048H3507.8V869.432C3507.8 877.048 3502.76 880.632 3495.08 880.632ZM3494.8 866.184C3501.47 866.184 3503.6 861.536 3503.6 855.432C3503.6 849.104 3500.91 845.184 3494.75 845.184C3489.32 845.184 3486.57 849.44 3486.57 855.712C3486.57 862.04 3489.43 866.184 3494.8 866.184ZM3514.12 871V830.96H3518.66V871H3514.12ZM3537.38 871.784C3528.53 871.784 3523.38 864.952 3523.38 856.552C3523.38 848.152 3528.87 841.32 3537.1 841.32C3545.78 841.32 3550.43 848.04 3550.43 857.616H3528.03C3528.36 863.496 3531.55 867.976 3537.38 867.976C3541.58 867.976 3544.38 865.96 3545.39 862.04H3549.81C3548.47 868.256 3543.93 871.784 3537.38 871.784ZM3537.1 844.904C3531.72 844.904 3528.81 848.936 3528.14 854.2H3545.55C3545.27 848.432 3542.31 844.904 3537.1 844.904ZM3553.01 877.608C3557.21 869.88 3559.57 862.152 3559.57 852.24C3559.57 843.056 3556.71 835.048 3553.01 828.776H3556.71C3560.97 834.712 3564.89 842.496 3564.89 852.24C3564.89 862.768 3561.3 870.608 3556.71 877.608H3553.01Z" fill="#0B1F2F"/>
<path d="M3193.99 1142V1101.96H3199.03V1137.35H3220.03V1142H3193.99ZM3224.49 1142V1101.96H3229.03V1142H3224.49ZM3258.11 1142.28C3255.14 1142.28 3253.57 1140.94 3253.12 1137.97H3253.07C3251.33 1140.21 3248.36 1142.56 3243.44 1142.56C3237.95 1142.56 3233.64 1139.98 3233.64 1134.5C3233.64 1127.66 3239.01 1126.26 3246.24 1125.14C3250.32 1124.53 3253.18 1124.14 3253.18 1121C3253.18 1117.75 3250.83 1115.9 3246.68 1115.9C3241.98 1115.9 3239.63 1117.92 3239.46 1122.29H3235.09C3235.26 1116.69 3238.96 1112.49 3246.63 1112.49C3252.79 1112.49 3257.32 1114.78 3257.32 1121.67V1135.45C3257.32 1137.8 3257.88 1139.09 3260.4 1138.53H3260.57V1141.83C3260.01 1142.06 3259.28 1142.28 3258.11 1142.28ZM3244.44 1139.09C3250.49 1139.09 3253.24 1134.66 3253.24 1131.3V1126.38C3251.72 1127.33 3249.09 1128.06 3246.63 1128.5C3242.09 1129.34 3238.45 1130.13 3238.45 1134.38C3238.45 1138.25 3241.48 1139.09 3244.44 1139.09ZM3263.92 1142V1113.05H3268.46V1117.19H3268.57C3270.36 1114.39 3273.44 1112.38 3277.08 1112.38C3280.61 1112.38 3283.41 1114.17 3284.64 1117.53H3284.75C3286.6 1114.22 3290.07 1112.38 3293.6 1112.38C3298.75 1112.38 3302.39 1115.68 3302.39 1121.67V1142H3297.86V1121.9C3297.86 1118.31 3295.45 1116.18 3292.54 1116.18C3288.78 1116.18 3285.42 1119.43 3285.42 1123.97V1142H3280.89V1121.9C3280.89 1118.31 3278.87 1116.18 3275.9 1116.18C3272.38 1116.18 3268.46 1119.43 3268.46 1123.97V1142H3263.92ZM3331.12 1142.28C3328.15 1142.28 3326.58 1140.94 3326.13 1137.97H3326.08C3324.34 1140.21 3321.37 1142.56 3316.44 1142.56C3310.96 1142.56 3306.64 1139.98 3306.64 1134.5C3306.64 1127.66 3312.02 1126.26 3319.24 1125.14C3323.33 1124.53 3326.19 1124.14 3326.19 1121C3326.19 1117.75 3323.84 1115.9 3319.69 1115.9C3314.99 1115.9 3312.64 1117.92 3312.47 1122.29H3308.1C3308.27 1116.69 3311.96 1112.49 3319.64 1112.49C3325.8 1112.49 3330.33 1114.78 3330.33 1121.67V1135.45C3330.33 1137.8 3330.89 1139.09 3333.41 1138.53H3333.58V1141.83C3333.02 1142.06 3332.29 1142.28 3331.12 1142.28ZM3317.45 1139.09C3323.5 1139.09 3326.24 1134.66 3326.24 1131.3V1126.38C3324.73 1127.33 3322.1 1128.06 3319.64 1128.5C3315.1 1129.34 3311.46 1130.13 3311.46 1134.38C3311.46 1138.25 3314.48 1139.09 3317.45 1139.09ZM3151.78 1212.61C3147.19 1205.61 3143.6 1197.77 3143.6 1187.24C3143.6 1177.5 3147.52 1169.71 3151.78 1163.78H3155.47C3151.78 1170.05 3148.92 1178.06 3148.92 1187.24C3148.92 1197.15 3151.27 1204.88 3155.47 1212.61H3151.78ZM3160.38 1206V1165.96H3166.82L3179.82 1199.22H3179.93L3192.81 1165.96H3199.36V1206H3194.54V1173.07H3194.43C3194.43 1173.07 3193.37 1176.21 3192.64 1178.11L3181.66 1206H3177.8L3166.82 1178.11C3166.04 1176.1 3165.03 1173.07 3165.03 1173.07H3164.92V1206H3160.38ZM3206.2 1206V1177.05H3210.73V1206H3206.2ZM3206.2 1171.56V1165.96H3210.73V1171.56H3206.2ZM3229.29 1206.78C3220.67 1206.78 3215.29 1199.95 3215.29 1191.55C3215.29 1183.15 3220.67 1176.32 3229.29 1176.32C3236.12 1176.32 3240.66 1180.24 3241.67 1186.4H3237.08C3236.4 1182.48 3233.66 1180.07 3229.29 1180.07C3223.13 1180.07 3219.94 1185.17 3219.94 1191.55C3219.94 1197.94 3223.13 1202.98 3229.29 1202.98C3234 1202.98 3236.8 1200.29 3237.19 1195.81H3241.67C3241.05 1202.75 3236.52 1206.78 3229.29 1206.78ZM3250.49 1177.05V1181.86H3250.6C3252.34 1179.06 3255.36 1176.71 3259.23 1176.71C3260.07 1176.71 3260.52 1176.82 3261.08 1177.05V1181.42H3260.91C3260.24 1181.19 3259.79 1181.14 3258.89 1181.14C3254.41 1181.14 3250.49 1184.5 3250.49 1189.93V1206H3245.96V1177.05H3250.49ZM3276.43 1206.78C3267.81 1206.78 3262.43 1199.95 3262.43 1191.55C3262.43 1183.15 3267.81 1176.32 3276.43 1176.32C3285.11 1176.32 3290.38 1183.15 3290.38 1191.55C3290.38 1199.95 3285.11 1206.78 3276.43 1206.78ZM3276.43 1202.98C3282.59 1202.98 3285.73 1197.94 3285.73 1191.55C3285.73 1185.17 3282.59 1180.07 3276.43 1180.07C3270.27 1180.07 3267.08 1185.17 3267.08 1191.55C3267.08 1197.94 3270.27 1202.98 3276.43 1202.98ZM3305.88 1206.84C3297.92 1206.84 3293.5 1203.09 3293.05 1196.59H3297.7C3298.32 1201.63 3301.68 1203.03 3305.99 1203.03C3310.75 1203.03 3312.71 1200.96 3312.71 1198.27C3312.71 1195.02 3310.47 1194.18 3305.15 1193.06C3299.44 1191.89 3294.34 1190.71 3294.34 1184.38C3294.34 1179.57 3298.04 1176.43 3304.76 1176.43C3311.92 1176.43 3315.45 1179.85 3316.12 1185.5H3311.48C3311.03 1181.7 3308.96 1180.02 3304.64 1180.02C3300.5 1180.02 3298.82 1181.86 3298.82 1184.16C3298.82 1187.3 3301.62 1187.91 3306.6 1188.92C3312.43 1190.1 3317.3 1191.38 3317.3 1198.05C3317.3 1203.87 3312.54 1206.84 3305.88 1206.84ZM3334.57 1206.78C3325.94 1206.78 3320.57 1199.95 3320.57 1191.55C3320.57 1183.15 3325.94 1176.32 3334.57 1176.32C3343.25 1176.32 3348.51 1183.15 3348.51 1191.55C3348.51 1199.95 3343.25 1206.78 3334.57 1206.78ZM3334.57 1202.98C3340.73 1202.98 3343.86 1197.94 3343.86 1191.55C3343.86 1185.17 3340.73 1180.07 3334.57 1180.07C3328.41 1180.07 3325.21 1185.17 3325.21 1191.55C3325.21 1197.94 3328.41 1202.98 3334.57 1202.98ZM3350.64 1180.74V1177.05H3354.61V1172.4C3354.61 1167.42 3357.47 1165.62 3362.29 1165.62C3363.24 1165.62 3363.97 1165.68 3364.58 1165.74V1169.6C3363.8 1169.54 3363.57 1169.54 3363.13 1169.54C3360.21 1169.54 3359.15 1170.27 3359.15 1172.62V1177.05H3364.53V1180.74H3359.15V1206H3354.61V1180.74H3350.64ZM3366.55 1180.74V1177.05H3370.75V1167.92H3375.29V1177.05H3380.89V1180.74H3375.29V1199.56C3375.29 1201.58 3376.35 1202.25 3378.2 1202.25C3379.1 1202.25 3380.1 1202.02 3380.61 1201.86H3380.78V1205.78C3379.71 1206 3378.48 1206.17 3377.14 1206.17C3373.44 1206.17 3370.75 1204.66 3370.75 1200.57V1180.74H3366.55ZM3385.56 1213.17V1210.65C3386.79 1210.2 3388.08 1209.14 3388.08 1206H3385.5V1200.46H3390.94V1206.17C3390.94 1210.26 3388.75 1212.55 3385.56 1213.17ZM3200.99 1270V1229.96H3207.43L3220.42 1263.22H3220.53L3233.41 1229.96H3239.97V1270H3235.15V1237.07H3235.04C3235.04 1237.07 3233.97 1240.21 3233.25 1242.11L3222.27 1270H3218.41L3207.43 1242.11C3206.65 1240.1 3205.64 1237.07 3205.64 1237.07H3205.53V1270H3200.99ZM3259.18 1270.78C3250.33 1270.78 3245.18 1263.95 3245.18 1255.55C3245.18 1247.15 3250.67 1240.32 3258.9 1240.32C3267.58 1240.32 3272.23 1247.04 3272.23 1256.62H3249.83C3250.16 1262.5 3253.35 1266.98 3259.18 1266.98C3263.38 1266.98 3266.18 1264.96 3267.19 1261.04H3271.61C3270.27 1267.26 3265.73 1270.78 3259.18 1270.78ZM3258.9 1243.9C3253.52 1243.9 3250.61 1247.94 3249.94 1253.2H3267.35C3267.07 1247.43 3264.11 1243.9 3258.9 1243.9ZM3274.27 1244.74V1241.05H3278.47V1231.92H3283V1241.05H3288.6V1244.74H3283V1263.56C3283 1265.58 3284.07 1266.25 3285.92 1266.25C3286.81 1266.25 3287.82 1266.02 3288.32 1265.86H3288.49V1269.78C3287.43 1270 3286.2 1270.17 3284.85 1270.17C3281.16 1270.17 3278.47 1268.66 3278.47 1264.57V1244.74H3274.27ZM3316.02 1270.28C3313.06 1270.28 3311.49 1268.94 3311.04 1265.97H3310.98C3309.25 1268.21 3306.28 1270.56 3301.35 1270.56C3295.86 1270.56 3291.55 1267.98 3291.55 1262.5C3291.55 1255.66 3296.93 1254.26 3304.15 1253.14C3308.24 1252.53 3311.1 1252.14 3311.1 1249C3311.1 1245.75 3308.74 1243.9 3304.6 1243.9C3299.9 1243.9 3297.54 1245.92 3297.38 1250.29H3293.01C3293.18 1244.69 3296.87 1240.49 3304.54 1240.49C3310.7 1240.49 3315.24 1242.78 3315.24 1249.67V1263.45C3315.24 1265.8 3315.8 1267.09 3318.32 1266.53H3318.49V1269.83C3317.93 1270.06 3317.2 1270.28 3316.02 1270.28ZM3302.36 1267.09C3308.41 1267.09 3311.15 1262.66 3311.15 1259.3V1254.38C3309.64 1255.33 3307.01 1256.06 3304.54 1256.5C3300.01 1257.34 3296.37 1258.13 3296.37 1262.38C3296.37 1266.25 3299.39 1267.09 3302.36 1267.09ZM3319.99 1276.61C3324.19 1268.88 3326.54 1261.15 3326.54 1251.24C3326.54 1242.06 3323.68 1234.05 3319.99 1227.78H3323.68C3327.94 1233.71 3331.86 1241.5 3331.86 1251.24C3331.86 1261.77 3328.27 1269.61 3323.68 1276.61H3319.99Z" fill="#0B1F2F"/>
<path d="M3138.1 1794V1753.96H3144.54L3157.53 1787.22H3157.64L3170.52 1753.96H3177.08V1794H3172.26V1761.07H3172.15C3172.15 1761.07 3171.08 1764.21 3170.36 1766.11L3159.38 1794H3155.52L3144.54 1766.11C3143.76 1764.1 3142.75 1761.07 3142.75 1761.07H3142.64V1794H3138.1ZM3183.91 1794V1765.05H3188.45V1794H3183.91ZM3183.91 1759.56V1753.96H3188.45V1759.56H3183.91ZM3205.83 1794.84C3197.93 1794.84 3193.01 1788.9 3193.01 1779.61C3193.01 1769.98 3198.55 1764.38 3205.72 1764.38C3209.81 1764.38 3212.94 1766.39 3214.79 1769.14H3214.9V1753.96H3219.44V1794H3214.9V1790.47H3214.79C3212.61 1793.27 3209.92 1794.84 3205.83 1794.84ZM3206 1791.03C3212.44 1791.03 3215.18 1786.22 3215.18 1779.66C3215.18 1772.94 3211.93 1768.24 3205.94 1768.24C3200.45 1768.24 3197.65 1773.17 3197.65 1779.66C3197.65 1786.22 3200.45 1791.03 3206 1791.03ZM3223.46 1802.23C3222.45 1802.23 3221.66 1802.12 3220.94 1802.01V1798.31H3221.05C3221.61 1798.42 3222.11 1798.48 3222.62 1798.48C3224.58 1798.48 3225.58 1797.64 3225.58 1795.68V1765.05H3230.12V1795.9C3230.12 1801.28 3227.15 1802.23 3223.46 1802.23ZM3225.58 1759.56V1753.96H3230.12V1759.56H3225.58ZM3248.68 1794.78C3240.05 1794.78 3234.68 1787.95 3234.68 1779.55C3234.68 1771.15 3240.05 1764.32 3248.68 1764.32C3257.36 1764.32 3262.62 1771.15 3262.62 1779.55C3262.62 1787.95 3257.36 1794.78 3248.68 1794.78ZM3248.68 1790.98C3254.84 1790.98 3257.97 1785.94 3257.97 1779.55C3257.97 1773.17 3254.84 1768.07 3248.68 1768.07C3242.52 1768.07 3239.33 1773.17 3239.33 1779.55C3239.33 1785.94 3242.52 1790.98 3248.68 1790.98ZM3290.11 1794H3285.57V1790.02H3285.46C3283.39 1792.82 3280.92 1794.67 3276.72 1794.67C3270.79 1794.67 3266.98 1791.09 3266.98 1785.1V1765.05H3271.51V1784.98C3271.51 1788.74 3273.92 1790.92 3278.01 1790.92C3282.6 1790.92 3285.57 1787.45 3285.57 1782.86V1765.05H3290.11V1794ZM3300.78 1765.05V1769.86H3300.89C3302.62 1767.06 3305.65 1764.71 3309.51 1764.71C3310.35 1764.71 3310.8 1764.82 3311.36 1765.05V1769.42H3311.19C3310.52 1769.19 3310.07 1769.14 3309.18 1769.14C3304.7 1769.14 3300.78 1772.5 3300.78 1777.93V1794H3296.24V1765.05H3300.78ZM3319.97 1765.05V1768.86H3320.08C3322.16 1766.11 3325.07 1764.38 3329.27 1764.38C3335.32 1764.38 3339.01 1767.68 3339.01 1773.67V1794H3334.48V1774.06C3334.48 1770.31 3332.01 1768.18 3327.92 1768.18C3323.33 1768.18 3319.97 1771.43 3319.97 1776.19V1794H3315.44V1765.05H3319.97ZM3357.4 1794.78C3348.55 1794.78 3343.4 1787.95 3343.4 1779.55C3343.4 1771.15 3348.89 1764.32 3357.12 1764.32C3365.8 1764.32 3370.45 1771.04 3370.45 1780.62H3348.05C3348.38 1786.5 3351.57 1790.98 3357.4 1790.98C3361.6 1790.98 3364.4 1788.96 3365.41 1785.04H3369.83C3368.49 1791.26 3363.95 1794.78 3357.4 1794.78ZM3357.12 1767.9C3351.74 1767.9 3348.83 1771.94 3348.16 1777.2H3365.57C3365.29 1771.43 3362.33 1767.9 3357.12 1767.9ZM3378.03 1803.58C3376.29 1803.58 3375.17 1803.46 3373.94 1802.96V1798.93H3374.17C3374.78 1799.26 3375.73 1799.54 3377.25 1799.54C3379.15 1799.54 3380.44 1798.82 3381.56 1796.02L3382.68 1793.16L3371.37 1765.05H3376.29L3383.13 1783.08C3384.02 1785.49 3385.09 1788.74 3385.09 1788.74H3385.2C3385.2 1788.74 3386.21 1785.49 3387.1 1783.08L3393.71 1765.05H3398.53L3386.15 1796.35C3383.8 1802.34 3381.56 1803.58 3378.03 1803.58ZM3134.5 1864.61C3129.9 1857.61 3126.32 1849.77 3126.32 1839.24C3126.32 1829.5 3130.24 1821.71 3134.5 1815.78H3138.19C3134.5 1822.05 3131.64 1830.06 3131.64 1839.24C3131.64 1849.15 3133.99 1856.88 3138.19 1864.61H3134.5ZM3143.1 1858V1817.96H3149.54L3162.54 1851.22H3162.65L3175.53 1817.96H3182.08V1858H3177.26V1825.07H3177.15C3177.15 1825.07 3176.09 1828.21 3175.36 1830.11L3164.38 1858H3160.52L3149.54 1830.11C3148.76 1828.1 3147.75 1825.07 3147.75 1825.07H3147.64V1858H3143.1ZM3188.92 1858V1829.05H3193.45V1858H3188.92ZM3188.92 1823.56V1817.96H3193.45V1823.56H3188.92ZM3210.83 1858.84C3202.94 1858.84 3198.01 1852.9 3198.01 1843.61C3198.01 1833.98 3203.55 1828.38 3210.72 1828.38C3214.81 1828.38 3217.95 1830.39 3219.79 1833.14H3219.91V1817.96H3224.44V1858H3219.91V1854.47H3219.79C3217.61 1857.27 3214.92 1858.84 3210.83 1858.84ZM3211 1855.03C3217.44 1855.03 3220.19 1850.22 3220.19 1843.66C3220.19 1836.94 3216.94 1832.24 3210.95 1832.24C3205.46 1832.24 3202.66 1837.17 3202.66 1843.66C3202.66 1850.22 3205.46 1855.03 3211 1855.03ZM3228.46 1866.23C3227.45 1866.23 3226.67 1866.12 3225.94 1866.01V1862.31H3226.05C3226.61 1862.42 3227.12 1862.48 3227.62 1862.48C3229.58 1862.48 3230.59 1861.64 3230.59 1859.68V1829.05H3235.12V1859.9C3235.12 1865.28 3232.16 1866.23 3228.46 1866.23ZM3230.59 1823.56V1817.96H3235.12V1823.56H3230.59ZM3253.68 1858.78C3245.06 1858.78 3239.68 1851.95 3239.68 1843.55C3239.68 1835.15 3245.06 1828.32 3253.68 1828.32C3262.36 1828.32 3267.63 1835.15 3267.63 1843.55C3267.63 1851.95 3262.36 1858.78 3253.68 1858.78ZM3253.68 1854.98C3259.84 1854.98 3262.98 1849.94 3262.98 1843.55C3262.98 1837.17 3259.84 1832.07 3253.68 1832.07C3247.52 1832.07 3244.33 1837.17 3244.33 1843.55C3244.33 1849.94 3247.52 1854.98 3253.68 1854.98ZM3295.11 1858H3290.57V1854.02H3290.46C3288.39 1856.82 3285.93 1858.67 3281.73 1858.67C3275.79 1858.67 3271.98 1855.09 3271.98 1849.1V1829.05H3276.52V1848.98C3276.52 1852.74 3278.93 1854.92 3283.01 1854.92C3287.61 1854.92 3290.57 1851.45 3290.57 1846.86V1829.05H3295.11V1858ZM3305.78 1829.05V1833.86H3305.89C3307.63 1831.06 3310.65 1828.71 3314.52 1828.71C3315.36 1828.71 3315.8 1828.82 3316.36 1829.05V1833.42H3316.2C3315.52 1833.19 3315.08 1833.14 3314.18 1833.14C3309.7 1833.14 3305.78 1836.5 3305.78 1841.93V1858H3301.24V1829.05H3305.78ZM3324.98 1829.05V1832.86H3325.09C3327.16 1830.11 3330.07 1828.38 3334.27 1828.38C3340.32 1828.38 3344.02 1831.68 3344.02 1837.67V1858H3339.48V1838.06C3339.48 1834.31 3337.02 1832.18 3332.93 1832.18C3328.34 1832.18 3324.98 1835.43 3324.98 1840.19V1858H3320.44V1829.05H3324.98ZM3362.4 1858.78C3353.55 1858.78 3348.4 1851.95 3348.4 1843.55C3348.4 1835.15 3353.89 1828.32 3362.12 1828.32C3370.8 1828.32 3375.45 1835.04 3375.45 1844.62H3353.05C3353.39 1850.5 3356.58 1854.98 3362.4 1854.98C3366.6 1854.98 3369.4 1852.96 3370.41 1849.04H3374.83C3373.49 1855.26 3368.95 1858.78 3362.4 1858.78ZM3362.12 1831.9C3356.75 1831.9 3353.83 1835.94 3353.16 1841.2H3370.58C3370.3 1835.43 3367.33 1831.9 3362.12 1831.9ZM3383.03 1867.58C3381.3 1867.58 3380.18 1867.46 3378.95 1866.96V1862.93H3379.17C3379.79 1863.26 3380.74 1863.54 3382.25 1863.54C3384.15 1863.54 3385.44 1862.82 3386.56 1860.02L3387.68 1857.16L3376.37 1829.05H3381.3L3388.13 1847.08C3389.03 1849.49 3390.09 1852.74 3390.09 1852.74H3390.2C3390.2 1852.74 3391.21 1849.49 3392.11 1847.08L3398.71 1829.05H3403.53L3391.15 1860.35C3388.8 1866.34 3386.56 1867.58 3383.03 1867.58ZM3402.84 1865.17V1862.65C3404.07 1862.2 3405.36 1861.14 3405.36 1858H3402.78V1852.46H3408.22V1858.17C3408.22 1862.26 3406.03 1864.55 3402.84 1865.17ZM3226.18 1922V1881.96H3231.22V1922H3226.18ZM3242.67 1893.05V1896.86H3242.78C3244.85 1894.11 3247.77 1892.38 3251.97 1892.38C3258.01 1892.38 3261.71 1895.68 3261.71 1901.67V1922H3257.17V1902.06C3257.17 1898.31 3254.71 1896.18 3250.62 1896.18C3246.03 1896.18 3242.67 1899.43 3242.67 1904.19V1922H3238.13V1893.05H3242.67ZM3280.1 1922.78C3271.47 1922.78 3266.1 1915.95 3266.1 1907.55C3266.1 1899.15 3271.47 1892.32 3280.1 1892.32C3286.93 1892.32 3291.46 1896.24 3292.47 1902.4H3287.88C3287.21 1898.48 3284.46 1896.07 3280.1 1896.07C3273.94 1896.07 3270.74 1901.17 3270.74 1907.55C3270.74 1913.94 3273.94 1918.98 3280.1 1918.98C3284.8 1918.98 3287.6 1916.29 3287.99 1911.81H3292.47C3291.86 1918.75 3287.32 1922.78 3280.1 1922.78ZM3294.91 1928.61C3299.11 1920.88 3301.46 1913.15 3301.46 1903.24C3301.46 1894.06 3298.61 1886.05 3294.91 1879.78H3298.61C3302.86 1885.71 3306.78 1893.5 3306.78 1903.24C3306.78 1913.77 3303.2 1921.61 3298.61 1928.61H3294.91Z" fill="#0B1F2F"/>
<path d="M3370.36 2190V2149.96H3384.92C3396.96 2149.96 3402.67 2158.14 3402.67 2170.12C3402.67 2182.1 3396.57 2190 3384.53 2190H3370.36ZM3375.4 2185.58H3384.36C3393.77 2185.58 3397.52 2179.53 3397.52 2170.12C3397.52 2160.71 3394.16 2154.33 3384.75 2154.33H3375.4V2185.58ZM3403.48 2190L3418.21 2149.96H3423.87L3438.65 2190H3433.16L3428.91 2177.79H3412.95L3408.63 2190H3403.48ZM3419.16 2160.26L3414.4 2173.7H3427.51L3422.91 2160.26C3422.13 2158.02 3421.12 2154.61 3421.12 2154.61H3421.01C3421.01 2154.61 3419.95 2157.97 3419.16 2160.26ZM3442.99 2190V2149.96H3448.03V2185.35H3469.03V2190H3442.99ZM3473.99 2190V2149.96H3479.03V2185.35H3500.03V2190H3473.99ZM3499.55 2177.68V2173.82H3527.55V2177.68H3499.55ZM3531.31 2190V2149.96H3559.59V2154.38H3536.35V2167.04H3557.46V2171.3H3536.35V2185.35H3560.26V2190H3531.31ZM3368.1 2260.61C3363.51 2253.61 3359.92 2245.77 3359.92 2235.24C3359.92 2225.5 3363.84 2217.71 3368.1 2211.78H3371.79C3368.1 2218.05 3365.24 2226.06 3365.24 2235.24C3365.24 2245.15 3367.59 2252.88 3371.79 2260.61H3368.1ZM3394.79 2254.84C3382.7 2254.84 3375.19 2245.94 3375.19 2233.95C3375.19 2221.97 3382.7 2213.06 3394.79 2213.06C3406.89 2213.06 3414.39 2221.97 3414.39 2233.95C3414.39 2245.94 3406.89 2254.84 3394.79 2254.84ZM3394.79 2250.42C3404.2 2250.42 3409.24 2243.36 3409.24 2233.95C3409.24 2224.54 3404.2 2217.43 3394.79 2217.43C3385.39 2217.43 3380.35 2224.54 3380.35 2233.95C3380.35 2243.36 3385.39 2250.42 3394.79 2250.42ZM3419.73 2263.3V2225.05H3424.26V2229.14H3424.38C3426.56 2226.17 3429.47 2224.38 3433.67 2224.38C3441.01 2224.38 3446.1 2229.98 3446.1 2239.61C3446.1 2248.9 3441.34 2254.84 3433.5 2254.84C3429.58 2254.84 3426.78 2253.66 3424.38 2250.58H3424.26V2263.3H3419.73ZM3433.17 2251.03C3438.71 2251.03 3441.46 2246.22 3441.46 2239.66C3441.46 2233.17 3438.71 2228.24 3433.22 2228.24C3426.9 2228.24 3423.98 2233.39 3423.98 2239.66C3423.98 2245.94 3426.5 2251.03 3433.17 2251.03ZM3463 2254.78C3454.15 2254.78 3449 2247.95 3449 2239.55C3449 2231.15 3454.49 2224.32 3462.72 2224.32C3471.4 2224.32 3476.05 2231.04 3476.05 2240.62H3453.65C3453.99 2246.5 3457.18 2250.98 3463 2250.98C3467.2 2250.98 3470 2248.96 3471.01 2245.04H3475.43C3474.09 2251.26 3469.55 2254.78 3463 2254.78ZM3462.72 2227.9C3457.35 2227.9 3454.43 2231.94 3453.76 2237.2H3471.18C3470.9 2231.43 3467.93 2227.9 3462.72 2227.9ZM3485.02 2225.05V2228.86H3485.13C3487.21 2226.11 3490.12 2224.38 3494.32 2224.38C3500.37 2224.38 3504.06 2227.68 3504.06 2233.67V2254H3499.53V2234.06C3499.53 2230.31 3497.06 2228.18 3492.97 2228.18C3488.38 2228.18 3485.02 2231.43 3485.02 2236.19V2254H3480.49V2225.05H3485.02ZM3507.55 2254L3522.28 2213.96H3527.94L3542.72 2254H3537.23L3532.98 2241.79H3517.02L3512.7 2254H3507.55ZM3523.23 2224.26L3518.47 2237.7H3531.58L3526.98 2224.26C3526.2 2222.02 3525.19 2218.61 3525.19 2218.61H3525.08C3525.08 2218.61 3524.02 2221.97 3523.23 2224.26ZM3547.17 2254V2213.96H3552.21V2254H3547.17ZM3557.28 2260.61C3561.48 2252.88 3563.83 2245.15 3563.83 2235.24C3563.83 2226.06 3560.97 2218.05 3557.28 2211.78H3560.97C3565.23 2217.71 3569.15 2225.5 3569.15 2235.24C3569.15 2245.77 3565.57 2253.61 3560.97 2260.61H3557.28Z" fill="#0B1F2F"/>
<path d="M3204.12 2519.78C3192.86 2519.78 3187.49 2513.51 3187.04 2505.45H3191.97C3192.64 2512.22 3196.78 2515.75 3204.34 2515.75C3209.89 2515.75 3213.86 2513.23 3213.86 2508.25C3213.86 2502.76 3209.05 2501.47 3201.88 2499.9C3194.82 2498.34 3188.78 2496.32 3188.78 2488.76C3188.78 2482.15 3194.26 2478.18 3202.38 2478.18C3212.41 2478.18 3216.55 2483.27 3217.56 2490.66H3212.8C3212.07 2484.95 3208.38 2482.1 3202.5 2482.1C3197.06 2482.1 3193.48 2484.39 3193.48 2488.54C3193.48 2493.07 3197.96 2494.42 3203.95 2495.59C3211.74 2497.16 3218.85 2499.06 3218.85 2508.08C3218.85 2515.58 3212.74 2519.78 3204.12 2519.78ZM3222.1 2493.74V2490.05H3226.3V2480.92H3230.83V2490.05H3236.43V2493.74H3230.83V2512.56C3230.83 2514.58 3231.9 2515.25 3233.74 2515.25C3234.64 2515.25 3235.65 2515.02 3236.15 2514.86H3236.32V2518.78C3235.26 2519 3234.02 2519.17 3232.68 2519.17C3228.98 2519.17 3226.3 2517.66 3226.3 2513.57V2493.74H3222.1ZM3263.85 2519.28C3260.88 2519.28 3259.32 2517.94 3258.87 2514.97H3258.81C3257.08 2517.21 3254.11 2519.56 3249.18 2519.56C3243.69 2519.56 3239.38 2516.98 3239.38 2511.5C3239.38 2504.66 3244.76 2503.26 3251.98 2502.14C3256.07 2501.53 3258.92 2501.14 3258.92 2498C3258.92 2494.75 3256.57 2492.9 3252.43 2492.9C3247.72 2492.9 3245.37 2494.92 3245.2 2499.29H3240.84C3241 2493.69 3244.7 2489.49 3252.37 2489.49C3258.53 2489.49 3263.07 2491.78 3263.07 2498.67V2512.45C3263.07 2514.8 3263.63 2516.09 3266.15 2515.53H3266.32V2518.83C3265.76 2519.06 3265.03 2519.28 3263.85 2519.28ZM3250.19 2516.09C3256.24 2516.09 3258.98 2511.66 3258.98 2508.3V2503.38C3257.47 2504.33 3254.84 2505.06 3252.37 2505.5C3247.84 2506.34 3244.2 2507.13 3244.2 2511.38C3244.2 2515.25 3247.22 2516.09 3250.19 2516.09ZM3283.44 2519.84C3279.52 2519.84 3276.66 2518.44 3274.31 2515.19H3274.2V2519H3269.66V2478.96H3274.2V2494.19H3274.31C3276.49 2491.22 3279.41 2489.38 3283.61 2489.38C3290.94 2489.38 3295.93 2494.98 3295.93 2504.61C3295.93 2513.9 3291.28 2519.84 3283.44 2519.84ZM3283.1 2516.03C3288.65 2516.03 3291.28 2511.22 3291.28 2504.66C3291.28 2498.17 3288.65 2493.24 3283.16 2493.24C3276.83 2493.24 3273.92 2498.39 3273.92 2504.66C3273.92 2511.16 3276.94 2516.03 3283.1 2516.03ZM3300.62 2519V2478.96H3305.16V2519H3300.62ZM3323.87 2519.78C3315.03 2519.78 3309.87 2512.95 3309.87 2504.55C3309.87 2496.15 3315.36 2489.32 3323.59 2489.32C3332.27 2489.32 3336.92 2496.04 3336.92 2505.62H3314.52C3314.86 2511.5 3318.05 2515.98 3323.87 2515.98C3328.07 2515.98 3330.87 2513.96 3331.88 2510.04H3336.31C3334.96 2516.26 3330.43 2519.78 3323.87 2519.78ZM3323.59 2492.9C3318.22 2492.9 3315.31 2496.94 3314.63 2502.2H3332.05C3331.77 2496.43 3328.8 2492.9 3323.59 2492.9ZM3167.14 2583V2542.96H3181.7C3193.74 2542.96 3199.45 2551.14 3199.45 2563.12C3199.45 2575.1 3193.35 2583 3181.31 2583H3167.14ZM3172.18 2578.58H3181.14C3190.55 2578.58 3194.3 2572.53 3194.3 2563.12C3194.3 2553.71 3190.94 2547.33 3181.53 2547.33H3172.18V2578.58ZM3204.75 2583V2554.05H3209.28V2583H3204.75ZM3204.75 2548.56V2542.96H3209.28V2548.56H3204.75ZM3213.62 2557.74V2554.05H3217.59V2549.74C3217.59 2544.75 3220.45 2542.96 3225.27 2542.96C3226.16 2542.96 3226.83 2543.02 3227.45 2543.07V2546.94C3226.78 2546.88 3226.5 2546.88 3226.05 2546.88C3223.19 2546.88 3222.13 2547.61 3222.13 2549.96V2554.05H3231.37V2549.4C3231.37 2544.42 3234.23 2542.62 3239.04 2542.62C3239.99 2542.62 3240.72 2542.68 3241.34 2542.74V2546.6C3240.55 2546.54 3240.33 2546.54 3239.88 2546.54C3236.97 2546.54 3235.91 2547.27 3235.91 2549.62V2554.05H3241.28V2557.74H3235.91V2583H3231.37V2557.74H3222.13V2583H3217.59V2557.74H3213.62ZM3268.67 2583H3264.13V2579.02H3264.02C3261.95 2581.82 3259.48 2583.67 3255.28 2583.67C3249.35 2583.67 3245.54 2580.09 3245.54 2574.1V2554.05H3250.08V2573.98C3250.08 2577.74 3252.48 2579.92 3256.57 2579.92C3261.16 2579.92 3264.13 2576.45 3264.13 2571.86V2554.05H3268.67V2583ZM3285.78 2583.84C3277.83 2583.84 3273.4 2580.09 3272.95 2573.59H3277.6C3278.22 2578.63 3281.58 2580.03 3285.89 2580.03C3290.65 2580.03 3292.61 2577.96 3292.61 2575.27C3292.61 2572.02 3290.37 2571.18 3285.05 2570.06C3279.34 2568.89 3274.24 2567.71 3274.24 2561.38C3274.24 2556.57 3277.94 2553.43 3284.66 2553.43C3291.83 2553.43 3295.35 2556.85 3296.03 2562.5H3291.38C3290.93 2558.7 3288.86 2557.02 3284.55 2557.02C3280.4 2557.02 3278.72 2558.86 3278.72 2561.16C3278.72 2564.3 3281.52 2564.91 3286.51 2565.92C3292.33 2567.1 3297.2 2568.38 3297.2 2575.05C3297.2 2580.87 3292.44 2583.84 3285.78 2583.84ZM3301.54 2583V2554.05H3306.08V2583H3301.54ZM3301.54 2548.56V2542.96H3306.08V2548.56H3301.54ZM3324.64 2583.78C3316.02 2583.78 3310.64 2576.95 3310.64 2568.55C3310.64 2560.15 3316.02 2553.32 3324.64 2553.32C3333.32 2553.32 3338.58 2560.15 3338.58 2568.55C3338.58 2576.95 3333.32 2583.78 3324.64 2583.78ZM3324.64 2579.98C3330.8 2579.98 3333.94 2574.94 3333.94 2568.55C3333.94 2562.17 3330.8 2557.07 3324.64 2557.07C3318.48 2557.07 3315.29 2562.17 3315.29 2568.55C3315.29 2574.94 3318.48 2579.98 3324.64 2579.98ZM3347.64 2554.05V2557.86H3347.76C3349.83 2555.11 3352.74 2553.38 3356.94 2553.38C3362.99 2553.38 3366.68 2556.68 3366.68 2562.67V2583H3362.15V2563.06C3362.15 2559.31 3359.68 2557.18 3355.6 2557.18C3351 2557.18 3347.64 2560.43 3347.64 2565.19V2583H3343.11V2554.05H3347.64ZM3138.62 2653.61C3134.03 2646.61 3130.45 2638.77 3130.45 2628.24C3130.45 2618.5 3134.37 2610.71 3138.62 2604.78H3142.32C3138.62 2611.05 3135.77 2619.06 3135.77 2628.24C3135.77 2638.15 3138.12 2645.88 3142.32 2653.61H3138.62ZM3161.25 2647.78C3149.99 2647.78 3144.61 2641.51 3144.17 2633.45H3149.09C3149.77 2640.22 3153.91 2643.75 3161.47 2643.75C3167.01 2643.75 3170.99 2641.23 3170.99 2636.25C3170.99 2630.76 3166.17 2629.47 3159.01 2627.9C3151.95 2626.34 3145.9 2624.32 3145.9 2616.76C3145.9 2610.15 3151.39 2606.18 3159.51 2606.18C3169.53 2606.18 3173.68 2611.27 3174.69 2618.66H3169.93C3169.2 2612.95 3165.5 2610.1 3159.62 2610.1C3154.19 2610.1 3150.61 2612.39 3150.61 2616.54C3150.61 2621.07 3155.09 2622.42 3161.08 2623.59C3168.86 2625.16 3175.97 2627.06 3175.97 2636.08C3175.97 2643.58 3169.87 2647.78 3161.25 2647.78ZM3179.22 2621.74V2618.05H3183.42V2608.92H3187.96V2618.05H3193.56V2621.74H3187.96V2640.56C3187.96 2642.58 3189.02 2643.25 3190.87 2643.25C3191.76 2643.25 3192.77 2643.02 3193.28 2642.86H3193.44V2646.78C3192.38 2647 3191.15 2647.17 3189.8 2647.17C3186.11 2647.17 3183.42 2645.66 3183.42 2641.57V2621.74H3179.22ZM3220.98 2647.28C3218.01 2647.28 3216.44 2645.94 3215.99 2642.97H3215.94C3214.2 2645.21 3211.23 2647.56 3206.3 2647.56C3200.82 2647.56 3196.5 2644.98 3196.5 2639.5C3196.5 2632.66 3201.88 2631.26 3209.1 2630.14C3213.19 2629.53 3216.05 2629.14 3216.05 2626C3216.05 2622.75 3213.7 2620.9 3209.55 2620.9C3204.85 2620.9 3202.5 2622.92 3202.33 2627.29H3197.96C3198.13 2621.69 3201.82 2617.49 3209.5 2617.49C3215.66 2617.49 3220.19 2619.78 3220.19 2626.67V2640.45C3220.19 2642.8 3220.75 2644.09 3223.27 2643.53H3223.44V2646.83C3222.88 2647.06 3222.15 2647.28 3220.98 2647.28ZM3207.31 2644.09C3213.36 2644.09 3216.1 2639.66 3216.1 2636.3V2631.38C3214.59 2632.33 3211.96 2633.06 3209.5 2633.5C3204.96 2634.34 3201.32 2635.13 3201.32 2639.38C3201.32 2643.25 3204.34 2644.09 3207.31 2644.09ZM3240.56 2647.84C3236.64 2647.84 3233.79 2646.44 3231.44 2643.19H3231.32V2647H3226.79V2606.96H3231.32V2622.19H3231.44C3233.62 2619.22 3236.53 2617.38 3240.73 2617.38C3248.07 2617.38 3253.05 2622.98 3253.05 2632.61C3253.05 2641.9 3248.4 2647.84 3240.56 2647.84ZM3240.23 2644.03C3245.77 2644.03 3248.4 2639.22 3248.4 2632.66C3248.4 2626.17 3245.77 2621.24 3240.28 2621.24C3233.96 2621.24 3231.04 2626.39 3231.04 2632.66C3231.04 2639.16 3234.07 2644.03 3240.23 2644.03ZM3257.58 2647V2618.05H3262.11V2647H3257.58ZM3257.58 2612.56V2606.96H3262.11V2612.56H3257.58ZM3268.46 2647V2606.96H3273V2647H3268.46ZM3279.34 2647V2618.05H3283.88V2647H3279.34ZM3279.34 2612.56V2606.96H3283.88V2612.56H3279.34ZM3288.21 2621.74V2618.05H3292.41V2608.92H3296.95V2618.05H3302.55V2621.74H3296.95V2640.56C3296.95 2642.58 3298.01 2643.25 3299.86 2643.25C3300.76 2643.25 3301.76 2643.02 3302.27 2642.86H3302.44V2646.78C3301.37 2647 3300.14 2647.17 3298.8 2647.17C3295.1 2647.17 3292.41 2645.66 3292.41 2641.57V2621.74H3288.21ZM3310.93 2656.58C3309.19 2656.58 3308.07 2656.46 3306.84 2655.96V2651.93H3307.06C3307.68 2652.26 3308.63 2652.54 3310.14 2652.54C3312.05 2652.54 3313.34 2651.82 3314.46 2649.02L3315.58 2646.16L3304.26 2618.05H3309.19L3316.02 2636.08C3316.92 2638.49 3317.98 2641.74 3317.98 2641.74H3318.1C3318.1 2641.74 3319.1 2638.49 3320 2636.08L3326.61 2618.05H3331.42L3319.05 2649.35C3316.7 2655.34 3314.46 2656.58 3310.93 2656.58ZM3341.02 2647L3355.75 2606.96H3361.41L3376.19 2647H3370.7L3366.45 2634.79H3350.49L3346.18 2647H3341.02ZM3356.7 2617.26L3351.94 2630.7H3365.05L3360.46 2617.26C3359.67 2615.02 3358.66 2611.61 3358.66 2611.61H3358.55C3358.55 2611.61 3357.49 2614.97 3356.7 2617.26ZM3380.64 2647V2606.96H3385.68V2647H3380.64ZM3390.75 2653.61C3394.95 2645.88 3397.3 2638.15 3397.3 2628.24C3397.3 2619.06 3394.45 2611.05 3390.75 2604.78H3394.45C3398.7 2610.71 3402.62 2618.5 3402.62 2628.24C3402.62 2638.77 3399.04 2646.61 3394.45 2653.61H3390.75Z" fill="#0B1F2F"/>
<line x1="1795.29" y1="1315.78" x2="2543.29" y2="400.785" stroke="#0B1F2F" stroke-width="7"/>
<line y1="-3.5" x2="1181.83" y2="-3.5" transform="matrix(0.632915 0.774221 0.774221 -0.632915 1798 1706)" stroke="#0B1F2F" stroke-width="7"/>
<line x1="1868" y1="1474.5" x2="3039" y2="1474.5" stroke="black" stroke-width="7"/>
<line x1="1868" y1="1549.5" x2="3039" y2="1549.5" stroke="#0B1F2F" stroke-width="7"/>
</svg>
